<?xml version="1.0" encoding="UTF-8" standalone="no"?>
<svg width="100%" height="100%" viewBox="0 0 45 45" version="1.1" xmlns="http://www.w3.org/2000/svg" xmlns:xlink="http://www.w3.org/1999/xlink" xmlns:sketch="http://www.bohemiancoding.com/sketch/ns">
    <!-- Generator: Sketch 3.3.1 (12002) - http://www.bohemiancoding.com/sketch -->
    <title>android-alert</title>
    <desc>Created with Sketch.</desc>
    <defs>
        <linearGradient x1="50%" y1="0%" x2="50%" y2="100%" id="linearGradient-1">
            <stop stop-color="#F5515F" offset="0%"></stop>
            <stop stop-color="#9F031B" offset="100%"></stop>
        </linearGradient>
        <filter x="-50%" y="-50%" width="200%" height="200%" filterUnits="objectBoundingBox" id="filter-2">
            <feOffset dx="0" dy="1" in="SourceAlpha" result="shadowOffsetInner1"></feOffset>
            <feGaussianBlur stdDeviation="1.5" in="shadowOffsetInner1" result="shadowBlurInner1"></feGaussianBlur>
            <feComposite in="shadowBlurInner1" in2="SourceAlpha" operator="arithmetic" k2="-1" k3="1" result="shadowInnerInner1"></feComposite>
            <feColorMatrix values="0 0 0 0 0   0 0 0 0 0   0 0 0 0 0  0 0 0 0.35 0" in="shadowInnerInner1" type="matrix" result="shadowMatrixInner1"></feColorMatrix>
            <feMerge>
                <feMergeNode in="SourceGraphic"></feMergeNode>
                <feMergeNode in="shadowMatrixInner1"></feMergeNode>
            </feMerge>
        </filter>
    </defs>
    <g id="art-1" stroke="none" stroke-width="1" fill="none" fill-rule="evenodd" sketch:type="MSPage">
        <g id="Profile" sketch:type="MSLayerGroup" transform="translate(-177.000000, -721.000000)" filter="url(#filter-2)" fill="url(#linearGradient-1)">
            <g id="android-alert" transform="translate(177.000000, 721.000000)" sketch:type="MSShapeGroup">
                <g id="Icon_30_">
                    <path d="M22.5,0 C10.125,0 0,10.1251082 0,22.5 C0,34.8748918 10.125,45 22.5,45 C34.875,45 45,34.8748918 45,22.5 C45,10.1251082 34.875,0 22.5,0 L22.5,0 Z M25.0961538,33.75 L19.9038462,33.75 L19.9038462,29.4230769 L25.0961538,29.4230769 L25.0961538,33.75 L25.0961538,33.75 Z M25.0961538,24.2307692 L19.9038462,24.2307692 L19.9038462,10.3846154 L25.0961538,10.3846154 L25.0961538,24.2307692 L25.0961538,24.2307692 Z" id="Shape"></path>
                </g>
            </g>
        </g>
    </g>
</svg>