<?xml version="1.0" encoding="UTF-8" standalone="no"?>
<svg width="100%" height="100%" viewBox="0 0 48 64" version="1.1" xmlns="http://www.w3.org/2000/svg" xmlns:xlink="http://www.w3.org/1999/xlink" xmlns:sketch="http://www.bohemiancoding.com/sketch/ns">
    <!-- Generator: Sketch 3.3.1 (12002) - http://www.bohemiancoding.com/sketch -->
    <title>exception unselected</title>
    <desc>Created with Sketch.</desc>
    <defs></defs>
    <g id="art-1" stroke="none" stroke-width="1" fill="none" fill-rule="evenodd" sketch:type="MSPage" fill-opacity="0.7">
        <g id="Approval-Detail" sketch:type="MSLayerGroup" transform="translate(-55.000000, -1057.000000)">
            <g id="active-task-copy-3" transform="translate(0.000000, 1016.000000)" sketch:type="MSShapeGroup">
                <g id="exception-unselected" transform="translate(59.000000, 43.500000)">
                    <path d="M18.0512821,30.8109453 C18.0512821,32.6847761 16.1533333,34.2039801 13.8121368,34.2039801 L13.8121368,34.2039801 C11.4707692,34.2039801 9.57264957,32.6847761 9.57264957,30.8109453 L9.57264957,22.4378109 C9.57264957,20.5638433 11.4707692,19.0447761 13.8121368,19.0447761 L13.8121368,19.0447761 C16.1533333,19.0447761 18.0512821,20.5638433 18.0512821,22.4378109 L18.0512821,30.8109453 L18.0512821,30.8109453 Z" id="Shape" stroke="#FFFFFF" fill="#000000"></path>
                    <path d="M8.47863248,30.6741294 C8.47863248,32.5479602 6.58068376,34.0671642 4.23948718,34.0671642 L4.23948718,34.0671642 C1.89811966,34.0671642 0,32.5479602 0,30.6741294 L0,23.8059701 C0,21.9320025 1.89811966,20.4129353 4.23948718,20.4129353 L4.23948718,20.4129353 C6.58068376,20.4129353 8.47863248,21.9320025 8.47863248,23.8059701 L8.47863248,30.6741294 L8.47863248,30.6741294 Z" id="Shape" stroke="#FFFFFF" fill="#000000"></path>
                    <path d="M39.3784615,29.5533333 C38.5418803,28.2449627 36.8422222,27.3486816 34.8798291,27.3486816 L24.3760684,27.3486816 C21.5861538,27.3486816 19.3242735,29.158893 19.3242735,31.3922761 C19.3242735,33.6252488 21.5859829,35.4354602 24.3760684,35.4354602 L24.757094,35.4354602 C24.3683761,35.5063308 23.9642735,35.5449129 23.5487179,35.5449129 C21.5078632,35.5449129 19.7307692,34.6431592 18.8034188,33.310709 C17.8762393,34.6431592 16.0994872,35.5449129 14.0588034,35.5449129 C11.9577778,35.5449129 10.1369231,34.5891169 9.23435897,33.1918159 C8.33196581,34.5891169 6.51128205,35.5449129 4.41042735,35.5449129 C3.33452991,35.5449129 2.21111111,35.2934453 1.36752137,34.8613806 L1.36752137,41.209092 C1.36752137,52.2638184 8.20512821,54.8908209 11.9776068,54.8908209 L30.4273504,54.8908209 C33.8461538,54.8908209 40,52.1270025 40,41.3185448 L40,31.4677985 C40,30.8009577 39.785641,30.120709 39.3784615,29.5533333 L39.3784615,29.5533333 Z" id="Shape" fill="#000000"></path>
                    <g id="Group" transform="translate(19.145299, 17.649254)">
                        <path d="M4.26615385,8.75621891 L8.47863248,8.75621891 L8.47863248,3.39303483 C8.47863248,1.51906716 6.58068376,0 4.23948718,0 C1.89811966,0 0,1.51906716 0,3.39303483 L0,10.5467289 C0.994017094,9.45685323 2.53487179,8.75621891 4.26615385,8.75621891 L4.26615385,8.75621891 Z" id="Shape" fill="#000000"></path>
                        <path d="M4.26615385,8.75621891 L8.47863248,8.75621891 L8.47863248,3.39303483 C8.47863248,1.51906716 6.58068376,0 4.23948718,0 C1.89811966,0 0,1.51906716 0,3.39303483 L0,10.5467289 C0.994017094,9.45685323 2.53487179,8.75621891 4.26615385,8.75621891 L4.26615385,8.75621891 Z" id="Shape" stroke="#FFFFFF"></path>
                    </g>
                    <path d="M35.7678632,26.3348756 C36.2376068,26.3348756 36.6933333,26.3864552 37.1280342,26.4833209 L37.1280342,3.42039801 C37.1280342,1.54643035 35.2300855,0.0273631841 32.8888889,0.0273631841 C30.5475214,0.0273631841 28.6495726,1.54643035 28.6495726,3.42039801 L28.6495726,26.3348756 L35.7678632,26.3348756 L35.7678632,26.3348756 Z" id="Shape" fill="#000000"></path>
                </g>
            </g>
        </g>
    </g>
</svg>