<?xml version="1.0" encoding="UTF-8" standalone="no"?>
<svg width="100%" height="100%" viewBox="0 0 51 66" version="1.1" xmlns="http://www.w3.org/2000/svg" xmlns:xlink="http://www.w3.org/1999/xlink" xmlns:sketch="http://www.bohemiancoding.com/sketch/ns">
    <!-- Generator: Sketch 3.3.1 (12002) - http://www.bohemiancoding.com/sketch -->
    <title>exception selected</title>
    <desc>Created with Sketch.</desc>
    <defs>
        <filter x="-50%" y="-50%" width="200%" height="200%" filterUnits="objectBoundingBox" id="filter-1">
            <feOffset dx="0" dy="2" in="SourceAlpha" result="shadowOffsetOuter1"></feOffset>
            <feGaussianBlur stdDeviation="2" in="shadowOffsetOuter1" result="shadowBlurOuter1"></feGaussianBlur>
            <feColorMatrix values="0 0 0 0 0   0 0 0 0 0   0 0 0 0 0  0 0 0 0.35 0" in="shadowBlurOuter1" type="matrix" result="shadowMatrixOuter1"></feColorMatrix>
            <feMerge>
                <feMergeNode in="shadowMatrixOuter1"></feMergeNode>
                <feMergeNode in="SourceGraphic"></feMergeNode>
            </feMerge>
        </filter>
        <filter x="-50%" y="-50%" width="200%" height="200%" filterUnits="objectBoundingBox" id="filter-2">
            <feOffset dx="0" dy="2" in="SourceAlpha" result="shadowOffsetOuter1"></feOffset>
            <feGaussianBlur stdDeviation="2" in="shadowOffsetOuter1" result="shadowBlurOuter1"></feGaussianBlur>
            <feColorMatrix values="0 0 0 0 0   0 0 0 0 0   0 0 0 0 0  0 0 0 0.35 0" in="shadowBlurOuter1" type="matrix" result="shadowMatrixOuter1"></feColorMatrix>
            <feMerge>
                <feMergeNode in="shadowMatrixOuter1"></feMergeNode>
                <feMergeNode in="SourceGraphic"></feMergeNode>
            </feMerge>
        </filter>
        <filter x="-50%" y="-50%" width="200%" height="200%" filterUnits="objectBoundingBox" id="filter-3">
            <feOffset dx="0" dy="2" in="SourceAlpha" result="shadowOffsetOuter1"></feOffset>
            <feGaussianBlur stdDeviation="2" in="shadowOffsetOuter1" result="shadowBlurOuter1"></feGaussianBlur>
            <feColorMatrix values="0 0 0 0 0   0 0 0 0 0   0 0 0 0 0  0 0 0 0.35 0" in="shadowBlurOuter1" type="matrix" result="shadowMatrixOuter1"></feColorMatrix>
            <feMerge>
                <feMergeNode in="shadowMatrixOuter1"></feMergeNode>
                <feMergeNode in="SourceGraphic"></feMergeNode>
            </feMerge>
        </filter>
        <filter x="-50%" y="-50%" width="200%" height="200%" filterUnits="objectBoundingBox" id="filter-4">
            <feOffset dx="0" dy="2" in="SourceAlpha" result="shadowOffsetOuter1"></feOffset>
            <feGaussianBlur stdDeviation="2" in="shadowOffsetOuter1" result="shadowBlurOuter1"></feGaussianBlur>
            <feColorMatrix values="0 0 0 0 0   0 0 0 0 0   0 0 0 0 0  0 0 0 0.35 0" in="shadowBlurOuter1" type="matrix" result="shadowMatrixOuter1"></feColorMatrix>
            <feMerge>
                <feMergeNode in="shadowMatrixOuter1"></feMergeNode>
                <feMergeNode in="SourceGraphic"></feMergeNode>
            </feMerge>
        </filter>
        <filter x="-50%" y="-50%" width="200%" height="200%" filterUnits="objectBoundingBox" id="filter-5">
            <feOffset dx="0" dy="2" in="SourceAlpha" result="shadowOffsetOuter1"></feOffset>
            <feGaussianBlur stdDeviation="2" in="shadowOffsetOuter1" result="shadowBlurOuter1"></feGaussianBlur>
            <feColorMatrix values="0 0 0 0 0   0 0 0 0 0   0 0 0 0 0  0 0 0 0.35 0" in="shadowBlurOuter1" type="matrix" result="shadowMatrixOuter1"></feColorMatrix>
            <feMerge>
                <feMergeNode in="shadowMatrixOuter1"></feMergeNode>
                <feMergeNode in="SourceGraphic"></feMergeNode>
            </feMerge>
        </filter>
        <filter x="-50%" y="-50%" width="200%" height="200%" filterUnits="objectBoundingBox" id="filter-6">
            <feOffset dx="0" dy="2" in="SourceAlpha" result="shadowOffsetOuter1"></feOffset>
            <feGaussianBlur stdDeviation="2" in="shadowOffsetOuter1" result="shadowBlurOuter1"></feGaussianBlur>
            <feColorMatrix values="0 0 0 0 0   0 0 0 0 0   0 0 0 0 0  0 0 0 0.35 0" in="shadowBlurOuter1" type="matrix" result="shadowMatrixOuter1"></feColorMatrix>
            <feMerge>
                <feMergeNode in="shadowMatrixOuter1"></feMergeNode>
                <feMergeNode in="SourceGraphic"></feMergeNode>
            </feMerge>
        </filter>
    </defs>
    <g id="art-1" stroke="none" stroke-width="1" fill="none" fill-rule="evenodd" sketch:type="MSPage">
        <g id="Exception-List" sketch:type="MSLayerGroup" transform="translate(-56.000000, -1055.000000)">
            <g id="active-exceptions-copy" transform="translate(0.000000, 1016.000000)" sketch:type="MSShapeGroup">
                <g id="exception-selected" transform="translate(62.000000, 41.000000)">
                    <path d="M18.4786325,30.7661692 C18.4786325,32.64 16.5806838,34.159204 14.2394872,34.159204 L14.2394872,34.159204 C11.8981197,34.159204 10,32.64 10,30.7661692 L10,22.3930348 C10,20.5190672 11.8981197,19 14.2394872,19 L14.2394872,19 C16.5806838,19 18.4786325,20.5190672 18.4786325,22.3930348 L18.4786325,30.7661692 L18.4786325,30.7661692 Z" id="Shape-Copy-4" fill="#EB31BC" filter="url(#filter-1)"></path>
                    <path d="M8.47863248,30.261194 C8.47863248,32.1350249 6.58068376,33.6542289 4.23948718,33.6542289 L4.23948718,33.6542289 C1.89811966,33.6542289 0,32.1350249 0,30.261194 L0,23.3930348 C0,21.5190672 1.89811966,20 4.23948718,20 L4.23948718,20 C6.58068376,20 8.47863248,21.5190672 8.47863248,23.3930348 L8.47863248,30.261194 L8.47863248,30.261194 Z" id="Shape-Copy" fill="#EB31BC" filter="url(#filter-2)"></path>
                    <path d="M39.0109402,29.2046517 C38.174359,27.8962811 36.4747009,27 34.5123077,27 L24.008547,27 C21.2186325,27 18.9567521,28.8102114 18.9567521,31.0435945 C18.9567521,33.2765672 21.2184615,35.0867786 24.008547,35.0867786 L24.3895726,35.0867786 C24.0008547,35.1576493 23.5967521,35.1962313 23.1811966,35.1962313 C21.1403419,35.1962313 19.3632479,34.2944776 18.4358974,32.9620274 C17.5087179,34.2944776 15.7319658,35.1962313 13.6912821,35.1962313 C11.5902564,35.1962313 9.76940171,34.2404353 8.86683761,32.8431343 C7.96444444,34.2404353 6.14376068,35.1962313 4.04290598,35.1962313 C2.96700855,35.1962313 1.84358974,34.9447637 1,34.512699 L1,40.8604104 C1,51.9151368 7.83760684,54.5421393 11.6100855,54.5421393 L30.0598291,54.5421393 C33.4786325,54.5421393 39.6324786,51.7783209 39.6324786,40.9698632 L39.6324786,31.1191169 C39.6324786,30.4522761 39.4181197,29.7720274 39.0109402,29.2046517 L39.0109402,29.2046517 Z" id="Shape-Copy-2" fill="#EB31BC" filter="url(#filter-3)"></path>
                    <g id="Group-Copy" transform="translate(19.000000, 18.000000)">
                        <path d="M4.26615385,8.75621891 L8.47863248,8.75621891 L8.47863248,3.39303483 C8.47863248,1.51906716 6.58068376,0 4.23948718,0 C1.89811966,0 0,1.51906716 0,3.39303483 L0,10.5467289 C0.994017094,9.45685323 2.53487179,8.75621891 4.26615385,8.75621891 L4.26615385,8.75621891 Z" id="Shape" fill="#EB31BC" filter="url(#filter-4)"></path>
                        <path d="M4.26615385,8.75621891 L8.47863248,8.75621891 L8.47863248,3.39303483 C8.47863248,1.51906716 6.58068376,0 4.23948718,0 C1.89811966,0 0,1.51906716 0,3.39303483 L0,10.5467289 C0.994017094,9.45685323 2.53487179,8.75621891 4.26615385,8.75621891 L4.26615385,8.75621891 Z" id="Shape" fill="white" filter="url(#filter-5)"></path>
                    </g>
                    <path d="M36.1182906,26.3075124 C36.5880342,26.3075124 37.0437607,26.359092 37.4784615,26.4559577 L37.4784615,3.39303483 C37.4784615,1.51906716 35.5805128,-1.77635684e-15 33.2393162,-1.77635684e-15 C30.8979487,-1.77635684e-15 29,1.51906716 29,3.39303483 L29,26.3075124 L36.1182906,26.3075124 L36.1182906,26.3075124 Z" id="Shape-Copy-3" fill="#EB31BC" filter="url(#filter-6)"></path>
                </g>
            </g>
        </g>
    </g>
</svg>