<?xml version="1.0" encoding="UTF-8" standalone="no"?>
<svg width="100%" height="100%" viewBox="0 0 63 63" version="1.1" xmlns="http://www.w3.org/2000/svg" xmlns:xlink="http://www.w3.org/1999/xlink" xmlns:sketch="http://www.bohemiancoding.com/sketch/ns">
    <!-- Generator: Sketch 3.3.1 (12002) - http://www.bohemiancoding.com/sketch -->
    <title>hub selected</title>
    <desc>Created with Sketch.</desc>
    <defs>
        <filter x="-50%" y="-50%" width="200%" height="200%" filterUnits="objectBoundingBox" id="filter-1">
            <feOffset dx="0" dy="2" in="SourceAlpha" result="shadowOffsetOuter1"></feOffset>
            <feGaussianBlur stdDeviation="2" in="shadowOffsetOuter1" result="shadowBlurOuter1"></feGaussianBlur>
            <feColorMatrix values="0 0 0 0 0   0 0 0 0 0   0 0 0 0 0  0 0 0 0.35 0" in="shadowBlurOuter1" type="matrix" result="shadowMatrixOuter1"></feColorMatrix>
            <feMerge>
                <feMergeNode in="shadowMatrixOuter1"></feMergeNode>
                <feMergeNode in="SourceGraphic"></feMergeNode>
            </feMerge>
        </filter>
        <filter x="-50%" y="-50%" width="200%" height="200%" filterUnits="objectBoundingBox" id="filter-2">
            <feOffset dx="0" dy="2" in="SourceAlpha" result="shadowOffsetOuter1"></feOffset>
            <feGaussianBlur stdDeviation="2" in="shadowOffsetOuter1" result="shadowBlurOuter1"></feGaussianBlur>
            <feColorMatrix values="0 0 0 0 0   0 0 0 0 0   0 0 0 0 0  0 0 0 0.35 0" in="shadowBlurOuter1" type="matrix" result="shadowMatrixOuter1"></feColorMatrix>
            <feMerge>
                <feMergeNode in="shadowMatrixOuter1"></feMergeNode>
                <feMergeNode in="SourceGraphic"></feMergeNode>
            </feMerge>
        </filter>
        <filter x="-50%" y="-50%" width="200%" height="200%" filterUnits="objectBoundingBox" id="filter-3">
            <feOffset dx="0" dy="2" in="SourceAlpha" result="shadowOffsetOuter1"></feOffset>
            <feGaussianBlur stdDeviation="2" in="shadowOffsetOuter1" result="shadowBlurOuter1"></feGaussianBlur>
            <feColorMatrix values="0 0 0 0 0   0 0 0 0 0   0 0 0 0 0  0 0 0 0.35 0" in="shadowBlurOuter1" type="matrix" result="shadowMatrixOuter1"></feColorMatrix>
            <feMerge>
                <feMergeNode in="shadowMatrixOuter1"></feMergeNode>
                <feMergeNode in="SourceGraphic"></feMergeNode>
            </feMerge>
        </filter>
        <filter x="-50%" y="-50%" width="200%" height="200%" filterUnits="objectBoundingBox" id="filter-4">
            <feOffset dx="0" dy="2" in="SourceAlpha" result="shadowOffsetOuter1"></feOffset>
            <feGaussianBlur stdDeviation="2" in="shadowOffsetOuter1" result="shadowBlurOuter1"></feGaussianBlur>
            <feColorMatrix values="0 0 0 0 0   0 0 0 0 0   0 0 0 0 0  0 0 0 0.35 0" in="shadowBlurOuter1" type="matrix" result="shadowMatrixOuter1"></feColorMatrix>
            <feMerge>
                <feMergeNode in="shadowMatrixOuter1"></feMergeNode>
                <feMergeNode in="SourceGraphic"></feMergeNode>
            </feMerge>
        </filter>
        <filter x="-50%" y="-50%" width="200%" height="200%" filterUnits="objectBoundingBox" id="filter-5">
            <feOffset dx="0" dy="2" in="SourceAlpha" result="shadowOffsetOuter1"></feOffset>
            <feGaussianBlur stdDeviation="2" in="shadowOffsetOuter1" result="shadowBlurOuter1"></feGaussianBlur>
            <feColorMatrix values="0 0 0 0 0   0 0 0 0 0   0 0 0 0 0  0 0 0 0.35 0" in="shadowBlurOuter1" type="matrix" result="shadowMatrixOuter1"></feColorMatrix>
            <feMerge>
                <feMergeNode in="shadowMatrixOuter1"></feMergeNode>
                <feMergeNode in="SourceGraphic"></feMergeNode>
            </feMerge>
        </filter>
        <filter x="-50%" y="-50%" width="200%" height="200%" filterUnits="objectBoundingBox" id="filter-6">
            <feOffset dx="0" dy="2" in="SourceAlpha" result="shadowOffsetOuter1"></feOffset>
            <feGaussianBlur stdDeviation="2" in="shadowOffsetOuter1" result="shadowBlurOuter1"></feGaussianBlur>
            <feColorMatrix values="0 0 0 0 0   0 0 0 0 0   0 0 0 0 0  0 0 0 0.35 0" in="shadowBlurOuter1" type="matrix" result="shadowMatrixOuter1"></feColorMatrix>
            <feMerge>
                <feMergeNode in="shadowMatrixOuter1"></feMergeNode>
                <feMergeNode in="SourceGraphic"></feMergeNode>
            </feMerge>
        </filter>
        <filter x="-50%" y="-50%" width="200%" height="200%" filterUnits="objectBoundingBox" id="filter-7">
            <feOffset dx="0" dy="2" in="SourceAlpha" result="shadowOffsetOuter1"></feOffset>
            <feGaussianBlur stdDeviation="2" in="shadowOffsetOuter1" result="shadowBlurOuter1"></feGaussianBlur>
            <feColorMatrix values="0 0 0 0 0   0 0 0 0 0   0 0 0 0 0  0 0 0 0.35 0" in="shadowBlurOuter1" type="matrix" result="shadowMatrixOuter1"></feColorMatrix>
            <feMerge>
                <feMergeNode in="shadowMatrixOuter1"></feMergeNode>
                <feMergeNode in="SourceGraphic"></feMergeNode>
            </feMerge>
        </filter>
        <filter x="-50%" y="-50%" width="200%" height="200%" filterUnits="objectBoundingBox" id="filter-8">
            <feOffset dx="0" dy="2" in="SourceAlpha" result="shadowOffsetOuter1"></feOffset>
            <feGaussianBlur stdDeviation="2" in="shadowOffsetOuter1" result="shadowBlurOuter1"></feGaussianBlur>
            <feColorMatrix values="0 0 0 0 0   0 0 0 0 0   0 0 0 0 0  0 0 0 0.35 0" in="shadowBlurOuter1" type="matrix" result="shadowMatrixOuter1"></feColorMatrix>
            <feMerge>
                <feMergeNode in="shadowMatrixOuter1"></feMergeNode>
                <feMergeNode in="SourceGraphic"></feMergeNode>
            </feMerge>
        </filter>
        <filter x="-50%" y="-50%" width="200%" height="200%" filterUnits="objectBoundingBox" id="filter-9">
            <feOffset dx="0" dy="2" in="SourceAlpha" result="shadowOffsetOuter1"></feOffset>
            <feGaussianBlur stdDeviation="2" in="shadowOffsetOuter1" result="shadowBlurOuter1"></feGaussianBlur>
            <feColorMatrix values="0 0 0 0 0   0 0 0 0 0   0 0 0 0 0  0 0 0 0.35 0" in="shadowBlurOuter1" type="matrix" result="shadowMatrixOuter1"></feColorMatrix>
            <feMerge>
                <feMergeNode in="shadowMatrixOuter1"></feMergeNode>
                <feMergeNode in="SourceGraphic"></feMergeNode>
            </feMerge>
        </filter>
    </defs>
    <g id="art-1" stroke="none" stroke-width="1" fill="none" fill-rule="evenodd" sketch:type="MSPage">
        <g id="Hub" sketch:type="MSLayerGroup" transform="translate(-412.000000, -1057.000000)" fill="#EB31BC">
            <g id="hub-selected" transform="translate(416.000000, 1059.000000)" sketch:type="MSShapeGroup">
                <path d="M47.3515625,39.703125 C43.1263021,39.703125 39.703125,43.1263021 39.703125,47.3515625 C39.703125,51.5768229 43.1263021,55 47.3515625,55 C51.5768229,55 55,51.5768229 55,47.3515625 C55,43.1263021 51.5768229,39.703125 47.3515625,39.703125 L47.3515625,39.703125 Z" id="Shape" filter="url(#filter-1)"></path>
                <path d="M27.5,39.703125 C23.2747396,39.703125 19.8515625,43.1263021 19.8515625,47.3515625 C19.8515625,51.5768229 23.2747396,55 27.5,55 C31.7252604,55 35.1484375,51.5768229 35.1484375,47.3515625 C35.1484375,43.1263021 31.7252604,39.703125 27.5,39.703125 L27.5,39.703125 Z" id="Shape" filter="url(#filter-2)"></path>
                <path d="M7.6484375,39.703125 C3.42317708,39.703125 0,43.1263021 0,47.3515625 C0,51.5768229 3.42317708,55 7.6484375,55 C11.8736979,55 15.296875,51.5768229 15.296875,47.3515625 C15.296875,43.1263021 11.8736979,39.703125 7.6484375,39.703125 L7.6484375,39.703125 Z" id="Shape" filter="url(#filter-3)"></path>
                <path d="M47.3515625,19.8515625 C43.1263021,19.8515625 39.703125,23.2747396 39.703125,27.5 C39.703125,31.7252604 43.1263021,35.1484375 47.3515625,35.1484375 C51.5768229,35.1484375 55,31.7252604 55,27.5 C55,23.2747396 51.5768229,19.8515625 47.3515625,19.8515625 L47.3515625,19.8515625 Z" id="Shape" filter="url(#filter-4)"></path>
                <path d="M27.5,19.8515625 C23.2747396,19.8515625 19.8515625,23.2747396 19.8515625,27.5 C19.8515625,31.7252604 23.2747396,35.1484375 27.5,35.1484375 C31.7252604,35.1484375 35.1484375,31.7252604 35.1484375,27.5 C35.1484375,23.2747396 31.7252604,19.8515625 27.5,19.8515625 L27.5,19.8515625 Z" id="Shape" filter="url(#filter-5)"></path>
                <path d="M7.6484375,19.8515625 C3.42317708,19.8515625 0,23.2747396 0,27.5 C0,31.7252604 3.42317708,35.1484375 7.6484375,35.1484375 C11.8736979,35.1484375 15.296875,31.7252604 15.296875,27.5 C15.296875,23.2747396 11.8736979,19.8515625 7.6484375,19.8515625 L7.6484375,19.8515625 Z" id="Shape" filter="url(#filter-6)"></path>
                <path d="M47.3515625,15.296875 C51.5768229,15.296875 55,11.8736979 55,7.6484375 C55,3.42317708 51.5768229,0 47.3515625,0 C43.1263021,0 39.703125,3.42317708 39.703125,7.6484375 C39.703125,11.8736979 43.1263021,15.296875 47.3515625,15.296875 L47.3515625,15.296875 Z" id="Shape" filter="url(#filter-7)"></path>
                <path d="M27.5,0 C23.2747396,0 19.8515625,3.42317708 19.8515625,7.6484375 C19.8515625,11.8736979 23.2747396,15.296875 27.5,15.296875 C31.7252604,15.296875 35.1484375,11.8736979 35.1484375,7.6484375 C35.1484375,3.42317708 31.7252604,0 27.5,0 L27.5,0 Z" id="Shape" filter="url(#filter-8)"></path>
                <path d="M7.6484375,0 C3.42317708,0 0,3.42317708 0,7.6484375 C0,11.8736979 3.42317708,15.296875 7.6484375,15.296875 C11.8736979,15.296875 15.296875,11.8736979 15.296875,7.6484375 C15.296875,3.42317708 11.8736979,0 7.6484375,0 L7.6484375,0 Z" id="Shape" filter="url(#filter-9)"></path>
            </g>
        </g>
    </g>
</svg>