<?xml version="1.0" encoding="UTF-8" standalone="no"?>
<svg width="100%" height="100%" viewBox="0 0 58 66" version="1.1" xmlns="http://www.w3.org/2000/svg" xmlns:xlink="http://www.w3.org/1999/xlink" xmlns:sketch="http://www.bohemiancoding.com/sketch/ns">
    <!-- Generator: Sketch 3.3.1 (12002) - http://www.bohemiancoding.com/sketch -->
    <title>flag selected</title>
    <desc>Created with Sketch.</desc>
    <defs>
        <filter x="-50%" y="-50%" width="200%" height="200%" filterUnits="objectBoundingBox" id="filter-1">
            <feOffset dx="0" dy="2" in="SourceAlpha" result="shadowOffsetOuter1"></feOffset>
            <feGaussianBlur stdDeviation="2" in="shadowOffsetOuter1" result="shadowBlurOuter1"></feGaussianBlur>
            <feColorMatrix values="0 0 0 0 0   0 0 0 0 0   0 0 0 0 0  0 0 0 0.35 0" in="shadowBlurOuter1" type="matrix" result="shadowMatrixOuter1"></feColorMatrix>
            <feMerge>
                <feMergeNode in="shadowMatrixOuter1"></feMergeNode>
                <feMergeNode in="SourceGraphic"></feMergeNode>
            </feMerge>
        </filter>
        <filter x="-50%" y="-50%" width="200%" height="200%" filterUnits="objectBoundingBox" id="filter-2">
            <feOffset dx="0" dy="2" in="SourceAlpha" result="shadowOffsetOuter1"></feOffset>
            <feGaussianBlur stdDeviation="2" in="shadowOffsetOuter1" result="shadowBlurOuter1"></feGaussianBlur>
            <feColorMatrix values="0 0 0 0 0   0 0 0 0 0   0 0 0 0 0  0 0 0 0.35 0" in="shadowBlurOuter1" type="matrix" result="shadowMatrixOuter1"></feColorMatrix>
            <feMerge>
                <feMergeNode in="shadowMatrixOuter1"></feMergeNode>
                <feMergeNode in="SourceGraphic"></feMergeNode>
            </feMerge>
        </filter>
    </defs>
    <g id="art-1" stroke="none" stroke-width="1" fill="none" fill-rule="evenodd" sketch:type="MSPage">
        <g id="Incidents-List" sketch:type="MSLayerGroup" transform="translate(-173.000000, -1056.000000)" fill="#EB31BC">
            <g id="active-incidents" transform="translate(0.000000, 1016.000000)" sketch:type="MSShapeGroup">
                <g id="flag-selected" transform="translate(179.000000, 42.000000)">
                    <path d="M44.4910714,18.4765625 C40.0959821,19.2008929 32.9263393,19.3973214 28.1629464,10.3616071 C23.0558036,0.650669643 14.8058036,0.356026786 9.98102679,1.23995536 C7.63616071,1.66964286 5.88058036,3.63392857 5.88058036,5.53683036 L5.88058036,29.6729911 C7.26785714,30.2008929 8.75334821,29.6484375 9.13392857,29.5747768 C9.23214286,29.5502232 9.31808036,29.5379464 9.42857143,29.5133929 C12.4977679,28.8381696 15.7388393,28.5189732 23.7678571,32.3738839 C33.8348214,37.1986607 42.6495536,28.3102679 46.0625,22.1227679 C46.3080357,21.6930804 47.1305804,19.6428571 47.1305804,17.6785714 C45.9397321,18.1696429 44.4910714,18.4765625 44.4910714,18.4765625 L44.4910714,18.4765625 Z" id="Shape" filter="url(#filter-1)"></path>
                    <path d="M2.94642857,0 L0.982142857,0 C0.441964286,0 0,0.441964286 0,0.982142857 L0,54.0178571 C0,54.5580357 0.441964286,55 0.982142857,55 L2.94642857,55 C3.48660714,55 3.92857143,54.5580357 3.92857143,54.0178571 L3.92857143,0.982142857 C3.92857143,0.441964286 3.48660714,0 2.94642857,0 L2.94642857,0 Z" id="Shape" filter="url(#filter-2)"></path>
                </g>
            </g>
        </g>
    </g>
</svg>