<?xml version="1.0" encoding="UTF-8" standalone="no"?>
<svg width="100%" height="100%" viewBox="0 0 47 54" version="1.1" xmlns="http://www.w3.org/2000/svg" xmlns:xlink="http://www.w3.org/1999/xlink" xmlns:sketch="http://www.bohemiancoding.com/sketch/ns">
    <!-- Generator: Sketch 3.3.1 (12002) - http://www.bohemiancoding.com/sketch -->
    <title>flag unselected</title>
    <desc>Created with Sketch.</desc>
    <defs></defs>
    <g id="art-1" stroke="none" stroke-width="1" fill="none" fill-rule="evenodd" sketch:type="MSPage" fill-opacity="0.7">
        <g id="Approval-Detail" sketch:type="MSLayerGroup" transform="translate(-174.000000, -1058.000000)" fill="#000000">
            <g id="active-task-copy-3" transform="translate(0.000000, 1016.000000)" sketch:type="MSShapeGroup">
                <g id="flag-unselected" transform="translate(178.000000, 44.000000)">
                    <g id="Group">
                        <path d="M37.0758929,15.3971354 C33.4133185,16.000744 27.4386161,16.1644345 23.469122,8.63467262 C19.2131696,0.542224702 12.3381696,0.296688988 8.31752232,1.03329613 C6.36346726,1.39136905 4.90048363,3.02827381 4.90048363,4.6140253 L4.90048363,24.7274926 C6.05654762,25.1674107 7.29445685,24.7070312 7.61160714,24.6456473 C7.69345238,24.625186 7.76506696,24.6149554 7.85714286,24.594494 C10.4148065,24.031808 13.1156994,23.765811 19.8065476,26.9782366 C28.1956845,30.9988839 35.5412946,23.5918899 38.3854167,18.4356399 C38.5900298,18.077567 39.2754836,16.3690476 39.2754836,14.7321429 C38.2831101,15.141369 37.0758929,15.3971354 37.0758929,15.3971354 L37.0758929,15.3971354 Z" id="Shape"></path>
                        <path d="M2.45535714,0 L0.818452381,0 C0.368303571,0 0,0.368303571 0,0.818452381 L0,45.014881 C0,45.4650298 0.368303571,45.8333333 0.818452381,45.8333333 L2.45535714,45.8333333 C2.90550595,45.8333333 3.27380952,45.4650298 3.27380952,45.014881 L3.27380952,0.818452381 C3.27380952,0.368303571 2.90550595,0 2.45535714,0 L2.45535714,0 Z" id="Shape"></path>
                    </g>
                </g>
            </g>
        </g>
    </g>
</svg>