<?xml version="1.0" encoding="UTF-8" standalone="no"?>
<svg width="508px" height="264px" viewBox="0 0 508 264" version="1.1" xmlns="http://www.w3.org/2000/svg" xmlns:xlink="http://www.w3.org/1999/xlink" xmlns:sketch="http://www.bohemiancoding.com/sketch/ns">
    <!-- Generator: Sketch 3.3.1 (12002) - http://www.bohemiancoding.com/sketch -->
    <title>ISMS Pack Image</title>
    <desc>Created with Sketch.</desc>
    <defs></defs>
    <g id="art-1" stroke="none" stroke-width="1" fill="none" fill-rule="evenodd" sketch:type="MSPage">
        <g id="Hub" sketch:type="MSLayerGroup" transform="translate(-66.000000, -390.000000)">
            <g id="pack" transform="translate(10.000000, 113.000000)" sketch:type="MSShapeGroup">
                <g id="ISMS-Pack-Image" transform="translate(60.000000, 279.000000)">
                    <g id="Group">
                        <g transform="translate(30.000000, 0.000000)">
                            <g transform="translate(41.000000, 0.000000)">
                                <path d="M384.216,3.87 C381.716,1.388 378.434,0.138 375.136,0.138 L13.637,0.138 C10.365,0.138 7.076,1.388 4.559,3.87 C2.077,6.377 0.817,9.65 0.817,12.938 L0.817,236.342 L387.955,236.342 L387.955,12.938 C387.955,9.649 386.716,6.377 384.216,3.87 L384.216,3.87 Z" id="Shape" fill="#242D3C"></path>
                                <g transform="translate(188.000000, 4.000000)" id="Shape">
                                    <path d="M11.809,5.996 C11.809,8.993 9.379,11.422 6.383,11.422 C3.376,11.422 0.956,8.993 0.956,5.996 C0.956,2.989 3.376,0.57 6.383,0.57 C9.379,0.57 11.809,2.989 11.809,5.996 L11.809,5.996 Z" fill="#3E4959"></path>
                                    <path d="M8.714,5.996 C8.714,7.281 7.667,8.317 6.383,8.317 C5.108,8.317 4.051,7.28 4.051,5.996 C4.051,4.711 5.108,3.662 6.383,3.662 C7.667,3.662 8.714,4.711 8.714,5.996 L8.714,5.996 Z" fill="#FFFFFF"></path>
                                </g>
                                <rect id="Rectangle-path" fill="#FFFFFF" x="20.968" y="19.854" width="346.837" height="216.487"></rect>
                            </g>
                            <g transform="translate(0.000000, 236.000000)">
                                <path d="M0.765,7.603 C18.607,15.494 38.344,19.863 59.102,19.863 L411.673,19.863 C432.427,19.863 452.146,15.494 470,7.603 L0.765,7.603 L0.765,7.603 Z" id="Shape" fill="#CCCBCA"></path>
                                <rect id="Rectangle-path" fill="#E6E5E5" x="0.765" y="0.342" width="469.235" height="7.261"></rect>
                                <rect id="Rectangle-path" fill="#242D3C" x="194.667" y="0.342" width="81.432" height="3.626"></rect>
                            </g>
                            <g transform="translate(114.000000, 45.000000)">
                                <g transform="translate(98.000000, 63.000000)">
                                    <path d="M51.627,9.153 L51.627,0.564 L12.61,0.564 L12.61,9.153 L6.236,9.153 L6.236,101.708 L137.622,101.708 L137.624,9.153 L51.627,9.153 Z" id="Shape" fill="#06B2B8"></path>
                                    <rect id="Rectangle-path" fill="#FFFFFF" x="14.179" y="15.553" width="115.5" height="79.755"></rect>
                                    <rect id="Rectangle-path" fill="#21D8DE" x="0.963" y="21.958" width="141.939" height="79.75"></rect>
                                    <g transform="translate(48.000000, 38.000000)" id="Shape">
                                        <path d="M46.893,23.838 C46.893,36.518 36.611,46.792 23.932,46.792 C11.252,46.792 0.972,36.518 0.972,23.838 C0.972,11.156 11.252,0.873 23.932,0.873 C36.61,0.873 46.893,11.156 46.893,23.838 L46.893,23.838 Z" fill="#FFFFFF"></path>
                                        <path d="M23.932,9.133 L13.639,26.963 L19.624,26.963 L19.624,38.535 L28.243,38.535 L28.243,26.963 L34.221,26.963 L23.932,9.133 Z" fill="#242D3C"></path>
                                    </g>
                                </g>
                                <g>
                                    <path d="M51.001,9.065 L51.001,0.484 L11.984,0.484 L11.984,9.065 L5.614,9.065 L5.614,101.627 L136.995,101.627 L136.998,9.065 L51.001,9.065 Z" id="Shape" fill="#E64717"></path>
                                    <rect id="Rectangle-path" fill="#FFFFFF" x="13.553" y="15.472" width="115.502" height="79.75"></rect>
                                    <rect id="Rectangle-path" fill="#F15424" x="0.336" y="21.875" width="141.94" height="79.752"></rect>
                                    <g transform="translate(48.000000, 38.000000)" id="Shape">
                                        <path d="M46.267,23.75 C46.267,36.432 35.987,46.712 23.306,46.712 C10.629,46.712 0.344,36.432 0.344,23.75 C0.344,11.068 10.629,0.788 23.306,0.788 C35.987,0.788 46.267,11.068 46.267,23.75 L46.267,23.75 Z" fill="#FFFFFF"></path>
                                        <path d="M23.305,38.45 L33.6,20.625 L27.614,20.625 L27.614,9.05 L18.998,9.05 L18.998,20.625 L13.013,20.625 L23.305,38.45 Z" fill="#242D3C"></path>
                                    </g>
                                </g>
                            </g>
                        </g>
                        <g transform="translate(0.000000, 73.000000)">
                            <path d="M61.426,0.684 C36.673,0.684 16.587,20.727 16.587,45.463 L16.587,72.111 L30.936,72.111 L30.936,45.463 C30.936,28.688 44.606,15.035 61.427,15.035 C78.222,15.035 91.888,28.688 91.888,45.463 L91.888,72.111 L106.246,72.111 L106.246,45.463 C106.246,20.727 86.18,0.684 61.426,0.684 L61.426,0.684 Z" id="Shape" fill="#E6E5E5"></path>
                            <rect id="Rectangle-path" fill="#16C6CC" x="0" y="72.111" width="122.823" height="91.23"></rect>
                            <rect id="Rectangle-path" fill="#242D3C" x="0" y="163.342" width="122.823" height="19.521"></rect>
                            <rect id="Rectangle-path" fill="#FFFFFF" x="11.166" y="104.698" width="100.491" height="26.057"></rect>
                            <g transform="translate(22.000000, 113.000000)" id="Shape" fill="#242D3C">
                                <path d="M5.444,9.307 C2.919,9.307 0.863,7.254 0.863,4.724 C0.863,2.202 2.919,0.147 5.444,0.147 C7.974,0.147 10.029,2.202 10.029,4.724 C10.03,7.254 7.974,9.307 5.444,9.307 L5.444,9.307 Z"></path>
                                <path d="M22.43,9.307 C19.9,9.307 17.845,7.254 17.845,4.724 C17.845,2.202 19.9,0.147 22.43,0.147 C24.952,0.147 27.008,2.202 27.008,4.724 C27.008,7.254 24.953,9.307 22.43,9.307 L22.43,9.307 Z"></path>
                                <path d="M39.404,9.307 C36.879,9.307 34.819,7.254 34.819,4.724 C34.819,2.202 36.88,0.147 39.404,0.147 C41.939,0.147 43.999,2.202 43.999,4.724 C43.999,7.254 41.938,9.307 39.404,9.307 L39.404,9.307 Z"></path>
                                <path d="M56.382,9.307 C53.865,9.307 51.819,7.254 51.819,4.724 C51.819,2.202 53.864,0.147 56.382,0.147 C58.907,0.147 60.967,2.202 60.967,4.724 C60.968,7.254 58.907,9.307 56.382,9.307 L56.382,9.307 Z"></path>
                                <path d="M73.369,9.307 C70.844,9.307 68.793,7.254 68.793,4.724 C68.793,2.202 70.844,0.147 73.369,0.147 C75.899,0.147 77.954,2.202 77.954,4.724 C77.954,7.254 75.898,9.307 73.369,9.307 L73.369,9.307 Z"></path>
                            </g>
                        </g>
                    </g>
                </g>
            </g>
        </g>
    </g>
</svg>