<?xml version="1.0" encoding="UTF-8" standalone="no"?>
<svg width="100%" height="100%" viewBox="0 0 20 20" version="1.1" xmlns="http://www.w3.org/2000/svg" xmlns:xlink="http://www.w3.org/1999/xlink" xmlns:sketch="http://www.bohemiancoding.com/sketch/ns">
    <!-- Generator: Sketch 3.3.1 (12002) - http://www.bohemiancoding.com/sketch -->
    <title>1455553575_checked</title>
    <desc>Created with Sketch.</desc>
    <defs></defs>
    <g id="Page-1" stroke="none" stroke-width="1" fill="none" fill-rule="evenodd" sketch:type="MSPage">
        <g id="1455553575_checked" sketch:type="MSLayerGroup">
            <path d="M19.2,3.6 L9.2,13.2 L4.8,8.8" id="Done__x2014__Displayed_on_the_left_side_of_a_contextual_action_bar__x28_CAB_x29__to_allow_the_user_to_dismiss_it._2_" stroke="#BD10E0" stroke-width="2" sketch:type="MSShapeGroup"></path>
            <path d="M17.9,11 C17.4,14.9 14,18 10,18 C5.6,18 2,14.4 2,10 C2,5.6 5.6,2 10,2 C11.4,2 12.7,2.4 13.9,3 L15.4,1.5 C13.8,0.6 12,0 10,0 C4.5,0 0,4.5 0,10 C0,15.5 4.5,20 10,20 C15.2,20 19.4,16.1 19.9,11 L17.9,11 L17.9,11 Z" id="Shape" fill="#BD10E0" sketch:type="MSShapeGroup"></path>
        </g>
    </g>
</svg>