<?xml version="1.0" encoding="UTF-8" standalone="no"?>
<svg width="289px" height="133px" viewBox="0 0 289 133" version="1.1" xmlns="http://www.w3.org/2000/svg" xmlns:xlink="http://www.w3.org/1999/xlink" xmlns:sketch="http://www.bohemiancoding.com/sketch/ns">
    <!-- Generator: Sketch 3.3.1 (12002) - http://www.bohemiancoding.com/sketch -->
    <title>Great!</title>
    <desc>Created with Sketch.</desc>
    <defs>
        <filter x="-50%" y="-50%" width="200%" height="200%" filterUnits="objectBoundingBox" id="filter-1">
            <feOffset dx="0" dy="2" in="SourceAlpha" result="shadowOffsetOuter1"></feOffset>
            <feGaussianBlur stdDeviation="2" in="shadowOffsetOuter1" result="shadowBlurOuter1"></feGaussianBlur>
            <feColorMatrix values="0 0 0 0 0   0 0 0 0 0   0 0 0 0 0  0 0 0 0.35 0" in="shadowBlurOuter1" type="matrix" result="shadowMatrixOuter1"></feColorMatrix>
            <feMerge>
                <feMergeNode in="shadowMatrixOuter1"></feMergeNode>
                <feMergeNode in="SourceGraphic"></feMergeNode>
            </feMerge>
        </filter>
    </defs>
    <g id="art-1" stroke="none" stroke-width="1" fill="none" fill-rule="evenodd" sketch:type="MSPage">
        <g id="Q&amp;A-Pass" sketch:type="MSLayerGroup" transform="translate(-176.000000, -732.000000)" filter="url(#filter-1)" fill="#FFFFFF">
            <path d="M265.924,765.168 C265.924,763.224 264.916,762.216 263.044,762.216 C262.9,762.216 262.108,762.36 260.524,762.576 C257.068,763.152 254.692,763.44 253.396,763.44 C252.244,763.44 250.516,763.224 248.212,762.792 C247.348,762.792 246.628,763.152 246.052,763.728 C245.404,764.304 245.116,765.024 245.116,765.816 C245.116,767.976 247.204,769.128 251.38,769.344 C250.876,769.92 250.66,770.496 250.66,771.072 C250.66,771.36 250.66,771.936 250.804,772.8 C250.804,773.664 250.876,774.24 250.876,774.528 C250.876,777.984 249.724,780.72 247.564,782.88 C245.548,784.824 243.46,785.76 241.3,785.76 C237.988,785.76 235.252,784.464 233.092,781.872 C230.788,779.28 229.708,775.824 229.708,771.504 C229.708,764.016 232.372,757.104 237.772,750.84 C243.1,744.576 249.364,741.12 256.564,740.4 C258.58,740.256 259.66,739.176 259.66,737.304 C259.66,735.288 258.58,734.208 256.564,734.208 C248.068,734.208 240.508,738.168 233.884,746.088 C227.26,754.008 223.948,762.792 223.948,772.296 C223.948,777.624 225.388,782.16 228.412,785.832 C231.58,789.72 235.684,791.664 240.868,791.664 C245.476,791.664 249.508,789.648 253.036,785.76 C253.9,789.648 255.34,791.592 257.428,791.592 C258.148,791.592 258.724,791.232 259.228,790.584 C259.804,789.864 260.092,789.072 260.092,788.208 C260.092,787.92 259.66,786.912 258.94,785.112 C257.5,781.656 256.78,777.48 256.78,772.584 C256.78,771.288 256.492,770.208 256.06,769.344 C262.612,769.056 265.924,767.688 265.924,765.168 L265.924,765.168 Z M297.82,764.304 C297.82,763.296 297.388,762.36 296.596,761.496 C295.732,760.632 294.868,760.2 293.932,760.2 C288.316,760.2 283.276,763.512 278.884,770.136 C278.452,767.112 277.948,764.952 277.372,763.656 C276.58,762.216 275.5,761.424 274.132,761.424 C273.556,761.424 273.052,761.784 272.692,762.36 C272.26,763.08 272.044,763.8 272.044,764.52 C272.044,767.688 272.692,770.208 273.988,772.008 C274.276,774.816 274.492,777.12 274.492,778.848 C274.492,780.792 274.276,782.52 273.916,784.104 C273.484,785.832 273.34,786.768 273.34,786.984 C273.34,788.208 273.628,789.216 274.348,790.152 C275.068,791.016 275.932,791.52 276.796,791.52 C277.66,791.52 278.38,790.872 278.812,789.576 C279.028,788.856 279.316,787.344 279.676,785.04 C280.972,776.256 284.572,770.424 290.404,767.544 C291.268,767.832 291.7,767.976 291.772,767.976 C292.924,767.976 294.22,767.616 295.66,766.752 C297.1,766.032 297.82,765.168 297.82,764.304 L297.82,764.304 Z M329.212,787.704 C329.212,786.984 328.924,786.264 328.348,785.544 C327.772,784.968 327.052,784.608 326.332,784.608 C325.756,784.608 324.82,784.752 323.596,784.896 C322.372,785.04 321.436,785.112 320.86,785.112 C318.7,785.112 316.828,784.104 315.1,782.016 C322.3,778.128 325.9,773.52 325.9,768.192 C325.9,766.176 325.036,764.232 323.308,762.504 C321.58,760.776 319.852,759.912 318.052,759.912 C314.956,759.912 312.436,761.712 310.42,765.24 C308.692,768.264 307.828,771.504 307.828,774.96 C307.828,775.68 307.9,776.688 308.116,777.912 L306.46,777.912 C305.452,777.912 304.516,777.552 303.508,776.832 C302.5,776.112 301.78,775.752 301.348,775.752 C299.476,775.752 298.54,776.76 298.54,778.776 C298.54,780.36 299.692,781.656 302.14,782.664 C304.012,783.456 305.812,783.816 307.684,783.816 L309.844,783.816 C312.436,788.784 316.468,791.232 321.94,791.232 C326.764,791.232 329.212,790.008 329.212,787.704 L329.212,787.704 Z M320.212,768.48 C320.212,770.856 318.052,773.448 313.732,776.256 L313.732,774.96 C313.732,773.016 314.02,771.144 314.74,769.344 C315.46,767.184 316.468,766.104 317.764,766.104 C318.34,766.104 318.916,766.392 319.492,766.824 C319.924,767.4 320.212,767.904 320.212,768.48 L320.212,768.48 Z M360.676,772.296 C360.676,771.648 360.316,770.928 359.74,770.208 C359.74,768.552 359.452,767.112 359.02,765.816 C359.092,765.528 359.164,765.168 359.164,764.808 C359.164,763.944 358.66,763.08 357.796,762.36 C356.86,761.64 355.924,761.208 354.988,761.208 C351.028,761.208 346.708,763.512 341.956,767.976 C336.988,772.584 334.54,777.048 334.54,781.224 C334.54,783.456 335.26,785.4 336.844,787.128 C338.356,788.928 340.156,789.792 342.244,789.792 C345.484,789.792 349.084,787.776 353.116,783.744 C353.476,789.216 354.7,792.024 356.788,792.024 C357.508,792.024 358.228,791.736 358.876,791.304 C359.452,790.728 359.812,790.008 359.812,789.288 C359.812,789.072 359.596,788.208 359.308,786.48 C358.948,784.824 358.804,783.528 358.804,782.664 C358.804,779.784 359.236,776.904 360.244,773.88 C360.532,773.088 360.676,772.584 360.676,772.296 L360.676,772.296 Z M354.124,770.208 C354.124,772.656 352.684,775.536 349.948,778.848 C347.212,782.16 344.692,783.744 342.532,783.744 C341.02,783.744 340.3,782.88 340.3,781.08 C340.3,778.776 342.1,775.896 345.772,772.368 C349.084,769.2 351.46,767.544 352.828,767.544 C353.692,767.544 354.124,768.48 354.124,770.208 L354.124,770.208 Z M392.716,763.728 C392.716,761.424 390.628,760.2 386.452,759.984 C383.428,759.912 381.628,759.84 381.124,759.84 C382.132,755.088 383.068,751.272 383.932,748.32 C384.58,746.304 385.156,744.576 385.588,743.064 C385.372,740.904 384.364,739.824 382.492,739.824 C381.196,739.824 380.332,740.616 379.9,742.128 C378.604,746.448 377.02,752.352 375.148,759.984 C373.42,759.984 372.34,760.2 371.764,760.488 C370.9,760.92 370.468,761.784 370.468,763.08 C370.468,765.168 371.548,766.176 373.78,766.176 L371.62,776.544 C370.684,781.224 370.252,784.68 370.252,786.84 C370.252,790.728 371.404,792.744 373.78,792.744 C374.5,792.744 375.148,792.456 375.868,791.88 C376.516,791.232 376.876,790.584 376.876,789.864 C376.876,788.712 376.516,787.92 375.796,787.344 C375.94,784.176 376.372,780.504 377.236,776.472 C377.524,775.104 378.316,771.648 379.612,766.032 C380.332,766.032 381.628,766.104 383.644,766.104 C385.66,766.176 386.884,766.176 387.388,766.176 C388.108,766.896 389.044,767.184 390.052,767.184 C390.7,767.184 391.348,766.824 391.924,766.104 C392.428,765.384 392.716,764.592 392.716,763.728 L392.716,763.728 Z M413.164,742.488 C413.164,741.768 412.876,741.048 412.372,740.4 C411.868,739.752 411.22,739.392 410.5,739.392 C409.636,739.392 408.844,739.752 408.052,740.4 C407.188,741.12 406.612,741.984 406.396,742.848 C405.964,744.288 405.82,745.296 405.82,745.8 C405.82,746.232 405.892,746.592 406.036,747.024 C405.172,750.12 404.524,754.872 404.02,761.208 C403.66,766.248 403.444,769.848 403.372,771.864 C403.228,773.592 403.228,774.672 403.228,775.104 C403.228,775.896 403.444,776.544 404.02,777.12 C404.524,777.696 405.172,777.984 406.036,777.984 C407.836,777.984 408.772,776.76 408.916,774.168 C409.348,762.432 410.5,752.784 412.372,745.224 C412.66,744.072 412.948,743.136 413.164,742.488 L413.164,742.488 Z M409.276,789.432 C409.276,787.2 408.628,785.688 407.404,784.968 C406.684,784.536 406.18,784.32 405.748,784.32 C404.74,784.32 403.804,784.68 403.084,785.4 C402.292,786.12 401.932,786.912 401.932,787.92 C401.932,789.504 402.436,790.656 403.444,791.304 C404.236,792.312 405.1,792.888 406.108,792.888 C408.196,792.888 409.276,791.736 409.276,789.432 L409.276,789.432 Z M198.622,827.132 C198.622,826.088 198.118,825.548 197.182,825.548 C196.462,825.548 195.49,826.52 194.302,828.392 C192.646,831.02 190.882,834.476 189.01,838.76 C187.57,835.484 186.742,833.648 186.562,833.252 C185.41,830.84 184.258,828.932 183.106,827.492 C182.206,826.376 181.522,825.8 181.09,825.8 C180.082,825.8 179.614,826.34 179.614,827.384 C179.614,827.816 179.938,828.392 180.586,829.148 C181.81,830.624 183.034,832.748 184.294,835.484 C185.95,839.228 187.03,841.46 187.498,842.252 C186.922,843.548 186.382,845.024 185.878,846.644 C185.266,848.66 184.978,850.1 184.978,850.964 C184.978,852.404 185.518,853.124 186.598,853.124 C187.678,853.124 188.218,852.548 188.218,851.396 C188.038,851.036 187.966,850.676 187.966,850.316 C187.966,850.172 188.038,849.74 188.254,849.056 C189.91,843.44 192.61,837.32 196.354,830.768 C196.894,829.832 197.362,829.148 197.722,828.716 C198.298,828.14 198.622,827.6 198.622,827.132 L198.622,827.132 Z M212.986,843.08 C212.986,841.676 212.59,840.38 211.798,839.228 C210.97,838.112 209.926,837.32 208.666,836.888 C208.162,836.744 207.874,836.672 207.802,836.672 C207.514,836.672 207.19,836.852 206.758,837.14 C206.254,837.428 205.858,837.644 205.57,837.752 C204.346,838.364 203.338,839.444 202.618,840.956 C201.898,842.324 201.574,843.8 201.574,845.348 C201.574,847.184 202.042,848.696 203.05,849.884 C204.058,851.036 205.318,851.648 206.83,851.648 C208.558,851.648 210.034,850.856 211.222,849.2 C212.374,847.544 212.986,845.528 212.986,843.08 L212.986,843.08 Z M210.142,843.62 C210.142,844.844 209.782,845.96 209.134,847.004 C208.414,848.084 207.658,848.624 206.794,848.624 C206.074,848.624 205.498,848.3 205.066,847.616 C204.598,846.968 204.382,846.212 204.382,845.348 C204.382,844.196 204.634,843.116 205.21,842.108 C205.858,840.956 206.686,840.344 207.694,840.344 C208.054,840.56 208.522,840.668 209.098,840.668 C209.782,841.1 210.142,842.108 210.142,843.62 L210.142,843.62 Z M231.85,839.048 C231.85,838.04 231.418,837.536 230.554,837.536 C230.122,837.536 229.762,837.788 229.402,838.292 C224.866,844.952 221.77,848.264 220.078,848.264 C219.79,848.264 219.646,848.12 219.646,847.832 C219.646,847.256 219.862,845.924 220.33,843.764 C220.762,841.676 220.978,840.272 220.978,839.624 C220.978,838.112 220.474,837.32 219.502,837.32 C219.142,837.32 218.854,837.5 218.602,837.86 C218.314,838.22 218.17,838.58 218.17,838.94 C218.17,839.048 218.17,839.192 218.206,839.336 L218.206,839.732 C218.206,840.308 217.918,841.856 217.414,844.412 C216.91,846.608 216.694,848.048 216.694,848.768 C216.694,849.632 216.982,850.28 217.558,850.748 C218.098,851.18 218.782,851.396 219.646,851.396 C221.554,851.396 224.254,849.38 227.782,845.312 C227.494,847.688 227.35,849.164 227.35,849.776 C227.17,850.064 227.098,850.316 227.098,850.604 C227.098,851.036 227.278,851.36 227.638,851.576 C227.962,851.792 228.358,851.936 228.79,851.936 C229.294,851.936 229.69,851.72 229.978,851.288 C230.266,850.892 230.41,850.424 230.41,849.884 C230.41,849.776 230.374,849.488 230.302,849.02 C230.23,848.588 230.194,848.228 230.194,847.94 C230.194,847.436 230.338,846.248 230.662,844.376 C231.022,842.324 231.31,840.92 231.598,840.164 C231.742,839.66 231.85,839.3 231.85,839.048 L231.85,839.048 Z M259.642,840.128 C259.642,839.84 259.534,839.552 259.318,839.264 C259.318,838.04 258.994,837.032 258.382,836.276 C257.734,835.52 256.87,835.124 255.862,835.124 C253.45,835.124 251.398,836.168 249.706,838.22 C248.086,840.164 247.294,842.324 247.294,844.7 C247.294,846.104 247.654,847.22 248.41,848.012 C249.13,848.84 250.174,849.236 251.47,849.236 C252.982,849.236 254.278,848.732 255.358,847.688 C254.854,852.44 252.478,855.212 248.23,855.932 C248.014,855.824 247.726,855.788 247.402,855.788 C246.97,855.788 246.502,855.968 246.07,856.4 C245.638,856.796 245.458,857.228 245.458,857.696 C245.458,858.74 245.962,859.28 246.97,859.28 C247.618,859.28 248.302,859.172 249.022,858.992 C254.926,857.264 258.058,852.728 258.382,845.384 C258.454,843.836 258.562,842.9 258.742,842.54 C259.318,841.388 259.642,840.596 259.642,840.128 L259.642,840.128 Z M256.186,840.272 C256.042,840.632 255.934,840.884 255.934,841.028 C255.718,842.612 255.286,843.836 254.638,844.736 C253.81,845.924 252.802,846.5 251.65,846.5 C250.714,846.5 250.282,845.852 250.282,844.556 C250.282,843.296 250.714,842 251.614,840.704 C252.586,839.3 253.702,838.58 254.926,838.58 C255.682,838.58 256.114,839.156 256.186,840.272 L256.186,840.272 Z M274.366,843.08 C274.366,841.676 273.97,840.38 273.178,839.228 C272.35,838.112 271.306,837.32 270.046,836.888 C269.542,836.744 269.254,836.672 269.182,836.672 C268.894,836.672 268.57,836.852 268.138,837.14 C267.634,837.428 267.238,837.644 266.95,837.752 C265.726,838.364 264.718,839.444 263.998,840.956 C263.278,842.324 262.954,843.8 262.954,845.348 C262.954,847.184 263.422,848.696 264.43,849.884 C265.438,851.036 266.698,851.648 268.21,851.648 C269.938,851.648 271.414,850.856 272.602,849.2 C273.754,847.544 274.366,845.528 274.366,843.08 L274.366,843.08 Z M271.522,843.62 C271.522,844.844 271.162,845.96 270.514,847.004 C269.794,848.084 269.038,848.624 268.174,848.624 C267.454,848.624 266.878,848.3 266.446,847.616 C265.978,846.968 265.762,846.212 265.762,845.348 C265.762,844.196 266.014,843.116 266.59,842.108 C267.238,840.956 268.066,840.344 269.074,840.344 C269.434,840.56 269.902,840.668 270.478,840.668 C271.162,841.1 271.522,842.108 271.522,843.62 L271.522,843.62 Z M290.422,838.364 C290.422,837.212 289.378,836.6 287.29,836.492 C285.778,836.456 284.878,836.42 284.626,836.42 C285.13,834.044 285.598,832.136 286.03,830.66 C286.354,829.652 286.642,828.788 286.858,828.032 C286.75,826.952 286.246,826.412 285.31,826.412 C284.662,826.412 284.23,826.808 284.014,827.564 C283.366,829.724 282.574,832.676 281.638,836.492 C280.774,836.492 280.234,836.6 279.946,836.744 C279.514,836.96 279.298,837.392 279.298,838.04 C279.298,839.084 279.838,839.588 280.954,839.588 L279.874,844.772 C279.406,847.112 279.19,848.84 279.19,849.92 C279.19,851.864 279.766,852.872 280.954,852.872 C281.314,852.872 281.638,852.728 281.998,852.44 C282.322,852.116 282.502,851.792 282.502,851.432 C282.502,850.856 282.322,850.46 281.962,850.172 C282.034,848.588 282.25,846.752 282.682,844.736 C282.826,844.052 283.222,842.324 283.87,839.516 C284.23,839.516 284.878,839.552 285.886,839.552 C286.894,839.588 287.506,839.588 287.758,839.588 C288.118,839.948 288.586,840.092 289.09,840.092 C289.414,840.092 289.738,839.912 290.026,839.552 C290.278,839.192 290.422,838.796 290.422,838.364 L290.422,838.364 Z M316.918,838.364 C316.918,837.212 315.874,836.6 313.786,836.492 C312.274,836.456 311.374,836.42 311.122,836.42 C311.626,834.044 312.094,832.136 312.526,830.66 C312.85,829.652 313.138,828.788 313.354,828.032 C313.246,826.952 312.742,826.412 311.806,826.412 C311.158,826.412 310.726,826.808 310.51,827.564 C309.862,829.724 309.07,832.676 308.134,836.492 C307.27,836.492 306.73,836.6 306.442,836.744 C306.01,836.96 305.794,837.392 305.794,838.04 C305.794,839.084 306.334,839.588 307.45,839.588 L306.37,844.772 C305.902,847.112 305.686,848.84 305.686,849.92 C305.686,851.864 306.262,852.872 307.45,852.872 C307.81,852.872 308.134,852.728 308.494,852.44 C308.818,852.116 308.998,851.792 308.998,851.432 C308.998,850.856 308.818,850.46 308.458,850.172 C308.53,848.588 308.746,846.752 309.178,844.736 C309.322,844.052 309.718,842.324 310.366,839.516 C310.726,839.516 311.374,839.552 312.382,839.552 C313.39,839.588 314.002,839.588 314.254,839.588 C314.614,839.948 315.082,840.092 315.586,840.092 C315.91,840.092 316.234,839.912 316.522,839.552 C316.774,839.192 316.918,838.796 316.918,838.364 L316.918,838.364 Z M332.182,851.288 C332.074,850.352 331.966,849.596 331.894,848.948 C331.678,847.256 331.57,845.672 331.57,844.16 C331.57,843.944 331.57,843.368 331.642,842.468 C331.714,841.568 331.786,841.064 331.786,840.956 C331.786,840.38 331.57,839.84 331.21,839.336 C330.85,838.904 330.418,838.652 329.878,838.652 C329.23,838.652 327.826,839.48 325.738,841.136 C323.722,842.684 322.354,843.944 321.562,844.916 C321.958,841.604 322.246,839.48 322.426,838.544 L323.506,832.892 C323.866,830.804 324.19,829.256 324.406,828.212 C324.586,827.204 324.694,826.628 324.694,826.448 C324.694,825.944 324.514,825.44 324.154,824.936 C323.83,824.432 323.434,824.18 322.966,824.18 C322.39,824.18 321.994,824.792 321.778,825.98 L319.69,837.464 C319.042,840.776 318.754,844.16 318.754,847.616 C318.754,847.832 318.754,848.228 318.79,848.768 L318.79,849.74 C318.79,850.244 318.97,850.748 319.33,851.216 C319.726,851.648 320.194,851.864 320.734,851.864 C321.022,851.864 321.346,851.468 321.778,850.676 C322.066,850.136 322.318,849.56 322.57,848.984 C323.506,847.292 325.594,845.24 328.834,842.828 L329.014,847.184 C329.158,850.64 329.95,852.332 331.462,852.332 C331.894,852.332 332.11,851.972 332.182,851.288 L332.182,851.288 Z M350.146,850.352 C350.146,849.992 350.002,849.632 349.714,849.272 C349.426,848.984 349.066,848.804 348.706,848.804 C348.418,848.804 347.95,848.876 347.338,848.948 C346.726,849.02 346.258,849.056 345.97,849.056 C344.89,849.056 343.954,848.552 343.09,847.508 C346.69,845.564 348.49,843.26 348.49,840.596 C348.49,839.588 348.058,838.616 347.194,837.752 C346.33,836.888 345.466,836.456 344.566,836.456 C343.018,836.456 341.758,837.356 340.75,839.12 C339.886,840.632 339.454,842.252 339.454,843.98 C339.454,844.34 339.49,844.844 339.598,845.456 L338.77,845.456 C338.266,845.456 337.798,845.276 337.294,844.916 C336.79,844.556 336.43,844.376 336.214,844.376 C335.278,844.376 334.81,844.88 334.81,845.888 C334.81,846.68 335.386,847.328 336.61,847.832 C337.546,848.228 338.446,848.408 339.382,848.408 L340.462,848.408 C341.758,850.892 343.774,852.116 346.51,852.116 C348.922,852.116 350.146,851.504 350.146,850.352 L350.146,850.352 Z M345.646,840.74 C345.646,841.928 344.566,843.224 342.406,844.628 L342.406,843.98 C342.406,843.008 342.55,842.072 342.91,841.172 C343.27,840.092 343.774,839.552 344.422,839.552 C344.71,839.552 344.998,839.696 345.286,839.912 C345.502,840.2 345.646,840.452 345.646,840.74 L345.646,840.74 Z M377.578,849.488 C377.578,849.38 377.398,849.02 377.038,848.444 C376.174,847.148 375.67,844.628 375.526,840.956 C375.49,840.092 375.094,839.66 374.302,839.66 C372.466,839.66 369.874,841.964 366.49,846.5 C366.094,845.42 365.914,843.476 365.914,840.74 C365.914,839.804 365.842,839.156 365.734,838.868 C365.554,838.436 365.158,838.184 364.582,838.184 C363.646,838.184 361.09,840.2 356.842,844.196 C357.526,841.1 357.886,839.12 357.886,838.184 C357.886,835.952 357.346,834.8 356.302,834.8 C355.834,834.8 355.402,834.98 355.006,835.34 C354.574,835.7 354.322,836.168 354.286,836.744 C354.646,837.464 354.826,838.184 354.826,838.868 C354.826,839.66 354.538,841.28 353.998,843.8 C353.422,846.392 353.17,848.192 353.17,849.272 C353.17,851.288 353.71,852.296 354.826,852.296 C355.582,852.296 356.122,851.792 356.41,850.784 C357.346,847.544 359.47,844.808 362.746,842.576 C362.962,845.564 363.466,847.868 364.33,849.452 C364.762,850.316 365.338,850.748 365.986,850.748 C366.634,850.748 367.318,850.208 368.038,849.092 C369.55,846.86 371.026,845.06 372.502,843.728 C373.078,848.696 374.122,851.18 375.634,851.18 C376.93,851.18 377.578,850.64 377.578,849.488 L377.578,849.488 Z M405.91,842.648 C405.91,842.324 405.73,841.964 405.442,841.604 C405.442,840.776 405.298,840.056 405.082,839.408 C405.118,839.264 405.154,839.084 405.154,838.904 C405.154,838.472 404.902,838.04 404.47,837.68 C404.002,837.32 403.534,837.104 403.066,837.104 C401.086,837.104 398.926,838.256 396.55,840.488 C394.066,842.792 392.842,845.024 392.842,847.112 C392.842,848.228 393.202,849.2 393.994,850.064 C394.75,850.964 395.65,851.396 396.694,851.396 C398.314,851.396 400.114,850.388 402.13,848.372 C402.31,851.108 402.922,852.512 403.966,852.512 C404.326,852.512 404.686,852.368 405.01,852.152 C405.298,851.864 405.478,851.504 405.478,851.144 C405.478,851.036 405.37,850.604 405.226,849.74 C405.046,848.912 404.974,848.264 404.974,847.832 C404.974,846.392 405.19,844.952 405.694,843.44 C405.838,843.044 405.91,842.792 405.91,842.648 L405.91,842.648 Z M402.634,841.604 C402.634,842.828 401.914,844.268 400.546,845.924 C399.178,847.58 397.918,848.372 396.838,848.372 C396.082,848.372 395.722,847.94 395.722,847.04 C395.722,845.888 396.622,844.448 398.458,842.684 C400.114,841.1 401.302,840.272 401.986,840.272 C402.418,840.272 402.634,840.74 402.634,841.604 L402.634,841.604 Z M416.638,826.664 C416.638,826.232 416.314,825.728 415.738,825.08 C415.162,824.504 414.658,824.18 414.226,824.18 C413.758,824.18 413.326,824.864 412.93,826.16 C411.526,830.624 410.842,835.232 410.842,839.984 C410.842,841.208 410.914,842.9 411.058,845.06 C410.806,845.492 410.698,846.284 410.698,847.4 C410.698,848.624 410.95,849.74 411.49,850.784 C411.994,851.828 412.606,852.368 413.326,852.368 C413.506,852.368 413.722,852.26 413.974,852.044 C414.19,851.864 414.334,851.684 414.334,851.504 C414.334,851.396 414.298,851.18 414.262,850.892 C414.19,850.568 414.19,850.352 414.19,850.208 C413.83,845.816 413.65,842.72 413.65,840.992 C413.65,836.852 414.19,832.712 415.27,828.572 L415.522,828.212 C416.242,827.852 416.638,827.348 416.638,826.664 L416.638,826.664 Z M426.25,826.664 C426.25,826.232 425.926,825.728 425.35,825.08 C424.774,824.504 424.27,824.18 423.838,824.18 C423.37,824.18 422.938,824.864 422.542,826.16 C421.138,830.624 420.454,835.232 420.454,839.984 C420.454,841.208 420.526,842.9 420.67,845.06 C420.418,845.492 420.31,846.284 420.31,847.4 C420.31,848.624 420.562,849.74 421.102,850.784 C421.606,851.828 422.218,852.368 422.938,852.368 C423.118,852.368 423.334,852.26 423.586,852.044 C423.802,851.864 423.946,851.684 423.946,851.504 C423.946,851.396 423.91,851.18 423.874,850.892 C423.802,850.568 423.802,850.352 423.802,850.208 C423.442,845.816 423.262,842.72 423.262,840.992 C423.262,836.852 423.802,832.712 424.882,828.572 L425.134,828.212 C425.854,827.852 426.25,827.348 426.25,826.664 L426.25,826.664 Z M446.158,839.156 C446.158,838.58 445.906,838.04 445.474,837.536 C444.97,836.996 444.466,836.708 443.926,836.708 C443.566,836.708 443.17,836.996 442.81,837.572 C442.414,838.148 442.234,838.616 442.234,839.048 C442.234,839.264 442.306,839.48 442.45,839.696 C442.954,840.56 443.674,841.064 444.538,841.208 C444.97,841.136 445.366,840.884 445.726,840.488 C446.014,840.092 446.158,839.66 446.158,839.156 L446.158,839.156 Z M446.014,850.568 C446.014,848.48 445.474,847.436 444.466,847.436 C444.178,847.436 443.926,847.472 443.746,847.544 C443.35,847.688 443.026,848.048 442.738,848.588 C442.45,849.164 442.342,849.704 442.342,850.208 C442.342,850.964 442.81,851.54 443.746,852.008 C444.07,852.152 444.358,852.26 444.574,852.26 C445.51,852.26 446.014,851.684 446.014,850.568 L446.014,850.568 Z M460.63,839.768 C460.63,836.888 460.162,833.9 459.226,830.84 C458.254,827.672 456.958,824.972 455.338,822.812 C455.194,822.524 455.014,822.236 454.798,821.912 C454.69,821.804 454.438,821.552 454.078,821.156 C453.322,820.436 452.53,820.04 451.738,820.04 C450.586,820.04 450.01,820.616 450.01,821.696 C450.01,822.236 450.478,822.884 451.45,823.604 C453.394,825.116 454.978,827.636 456.13,831.092 C457.102,834.116 457.606,837.068 457.606,840.02 C457.606,845.564 456.418,849.92 454.078,853.016 C453.646,853.556 453.142,854.06 452.566,854.564 C452.278,854.78 451.81,855.068 451.198,855.464 C450.55,855.896 450.262,856.508 450.262,857.3 C450.262,858.38 450.766,858.92 451.81,858.92 C452.422,858.92 453.106,858.596 453.862,858.02 C456.094,856.184 457.822,853.448 459.046,849.812 C460.09,846.644 460.63,843.296 460.63,839.768 L460.63,839.768 Z" id="Great!" sketch:type="MSShapeGroup"></path>
        </g>
    </g>
</svg>