<?xml version="1.0" encoding="UTF-8" standalone="no"?>
<svg width="515px" height="131px" viewBox="0 0 515 131" version="1.1" xmlns="http://www.w3.org/2000/svg" xmlns:xlink="http://www.w3.org/1999/xlink" xmlns:sketch="http://www.bohemiancoding.com/sketch/ns">
    <!-- Generator: Sketch 3.3.1 (12002) - http://www.bohemiancoding.com/sketch -->
    <title>Aww!</title>
    <desc>Created with Sketch.</desc>
    <defs>
        <filter x="-50%" y="-50%" width="200%" height="200%" filterUnits="objectBoundingBox" id="filter-1">
            <feOffset dx="0" dy="2" in="SourceAlpha" result="shadowOffsetOuter1"></feOffset>
            <feGaussianBlur stdDeviation="2" in="shadowOffsetOuter1" result="shadowBlurOuter1"></feGaussianBlur>
            <feColorMatrix values="0 0 0 0 0   0 0 0 0 0   0 0 0 0 0  0 0 0 0.35 0" in="shadowBlurOuter1" type="matrix" result="shadowMatrixOuter1"></feColorMatrix>
            <feMerge>
                <feMergeNode in="shadowMatrixOuter1"></feMergeNode>
                <feMergeNode in="SourceGraphic"></feMergeNode>
            </feMerge>
        </filter>
    </defs>
    <g id="art-1" stroke="none" stroke-width="1" fill="none" fill-rule="evenodd" sketch:type="MSPage">
        <g id="Q&amp;A-Fail" sketch:type="MSLayerGroup" transform="translate(-45.000000, -736.000000)" filter="url(#filter-1)" fill="#FFFFFF">
            <path d="M258.616,792.944 C258.616,792.08 258.4,791 258.112,789.488 C253.936,771.704 248.392,755.936 241.552,742.256 C239.968,739.232 238.6,737.72 237.376,737.72 C236.44,737.72 235.648,738.296 235,739.304 C234.784,739.664 234.352,740.6 233.776,742.112 C228.736,754.208 224.92,765.152 222.4,774.944 C217.864,775.664 215.56,775.952 215.416,775.952 C213.616,776.24 212.752,777.176 212.752,778.832 C212.752,780.992 213.544,782.072 215.272,782.072 C216.064,782.072 217.936,781.856 220.888,781.352 C220.168,784.808 219.88,787.184 219.88,788.48 C219.88,790.136 220.024,791.216 220.312,791.936 C220.816,793.016 221.824,793.592 223.264,793.592 C223.768,793.592 224.344,793.304 224.92,792.8 C225.496,792.224 225.928,791.72 226.072,791.144 C225.928,790.28 225.856,789.416 225.856,788.624 C225.856,786.536 226.144,783.8 226.864,780.488 C231.328,780.056 234.712,779.84 236.944,779.84 C240.832,779.84 245.224,780.56 250.048,781.928 C250.768,784.376 251.272,786.32 251.632,787.76 C251.488,788.12 251.416,788.48 251.416,788.84 C251.416,789.848 251.848,791.144 252.712,792.8 C253.648,794.6 254.584,795.536 255.448,795.536 C257.536,795.536 258.616,794.672 258.616,792.944 L258.616,792.944 Z M248.032,774.8 C243.568,773.936 239.968,773.504 237.376,773.504 C235,773.504 232.048,773.72 228.52,774.152 C231.112,764.36 234.064,755.72 237.376,748.16 C241.12,755.072 244.648,764 248.032,774.8 L248.032,774.8 Z M311.392,769.688 C311.392,763.856 310.096,760.904 307.648,760.904 C305.704,760.904 304.768,761.984 304.768,764.144 C304.768,764.288 304.84,764.864 304.984,765.872 C305.056,766.88 305.128,767.672 305.128,768.248 C305.128,772.856 304.192,777.104 302.464,781.136 C300.52,785.6 298.288,787.76 295.696,787.76 C293.104,787.76 291.088,782.432 289.648,771.704 C289.36,770.048 288.568,769.184 287.272,769.184 C286.12,769.184 285.256,769.976 284.608,771.56 C281.512,779.192 277.408,784.664 272.296,787.976 C270.496,784.16 269.632,778.976 269.632,772.424 C269.632,771.56 269.848,770.192 270.352,768.392 C270.856,766.664 271.144,765.584 271.144,765.152 C271.144,761.912 269.992,760.256 267.688,760.256 C266.176,760.256 265.24,761.12 264.808,762.776 C264.088,765.512 263.8,768.68 263.8,772.352 C263.8,776.888 264.448,781.64 265.816,786.536 C267.256,792.368 269.128,795.32 271.36,795.32 C272.944,795.32 275.392,793.736 278.632,790.712 C281.224,788.192 283.528,785.456 285.688,782.576 C287.848,790.064 291.232,793.808 295.912,793.808 C299.872,793.808 303.256,791.36 306.064,786.608 C308.152,782.936 309.592,778.616 310.384,773.576 C311.032,772.712 311.392,771.416 311.392,769.688 L311.392,769.688 Z M364.168,769.688 C364.168,763.856 362.872,760.904 360.424,760.904 C358.48,760.904 357.544,761.984 357.544,764.144 C357.544,764.288 357.616,764.864 357.76,765.872 C357.832,766.88 357.904,767.672 357.904,768.248 C357.904,772.856 356.968,777.104 355.24,781.136 C353.296,785.6 351.064,787.76 348.472,787.76 C345.88,787.76 343.864,782.432 342.424,771.704 C342.136,770.048 341.344,769.184 340.048,769.184 C338.896,769.184 338.032,769.976 337.384,771.56 C334.288,779.192 330.184,784.664 325.072,787.976 C323.272,784.16 322.408,778.976 322.408,772.424 C322.408,771.56 322.624,770.192 323.128,768.392 C323.632,766.664 323.92,765.584 323.92,765.152 C323.92,761.912 322.768,760.256 320.464,760.256 C318.952,760.256 318.016,761.12 317.584,762.776 C316.864,765.512 316.576,768.68 316.576,772.352 C316.576,776.888 317.224,781.64 318.592,786.536 C320.032,792.368 321.904,795.32 324.136,795.32 C325.72,795.32 328.168,793.736 331.408,790.712 C334,788.192 336.304,785.456 338.464,782.576 C340.624,790.064 344.008,793.808 348.688,793.808 C352.648,793.808 356.032,791.36 358.84,786.608 C360.928,782.936 362.368,778.616 363.16,773.576 C363.808,772.712 364.168,771.416 364.168,769.688 L364.168,769.688 Z M386.848,744.488 C386.848,743.768 386.56,743.048 386.056,742.4 C385.552,741.752 384.904,741.392 384.184,741.392 C383.32,741.392 382.528,741.752 381.736,742.4 C380.872,743.12 380.296,743.984 380.08,744.848 C379.648,746.288 379.504,747.296 379.504,747.8 C379.504,748.232 379.576,748.592 379.72,749.024 C378.856,752.12 378.208,756.872 377.704,763.208 C377.344,768.248 377.128,771.848 377.056,773.864 C376.912,775.592 376.912,776.672 376.912,777.104 C376.912,777.896 377.128,778.544 377.704,779.12 C378.208,779.696 378.856,779.984 379.72,779.984 C381.52,779.984 382.456,778.76 382.6,776.168 C383.032,764.432 384.184,754.784 386.056,747.224 C386.344,746.072 386.632,745.136 386.848,744.488 L386.848,744.488 Z M382.96,791.432 C382.96,789.2 382.312,787.688 381.088,786.968 C380.368,786.536 379.864,786.32 379.432,786.32 C378.424,786.32 377.488,786.68 376.768,787.4 C375.976,788.12 375.616,788.912 375.616,789.92 C375.616,791.504 376.12,792.656 377.128,793.304 C377.92,794.312 378.784,794.888 379.792,794.888 C381.88,794.888 382.96,793.736 382.96,791.432 L382.96,791.432 Z M68.068,829.132 C68.068,828.088 67.564,827.548 66.628,827.548 C65.908,827.548 64.936,828.52 63.748,830.392 C62.092,833.02 60.328,836.476 58.456,840.76 C57.016,837.484 56.188,835.648 56.008,835.252 C54.856,832.84 53.704,830.932 52.552,829.492 C51.652,828.376 50.968,827.8 50.536,827.8 C49.528,827.8 49.06,828.34 49.06,829.384 C49.06,829.816 49.384,830.392 50.032,831.148 C51.256,832.624 52.48,834.748 53.74,837.484 C55.396,841.228 56.476,843.46 56.944,844.252 C56.368,845.548 55.828,847.024 55.324,848.644 C54.712,850.66 54.424,852.1 54.424,852.964 C54.424,854.404 54.964,855.124 56.044,855.124 C57.124,855.124 57.664,854.548 57.664,853.396 C57.484,853.036 57.412,852.676 57.412,852.316 C57.412,852.172 57.484,851.74 57.7,851.056 C59.356,845.44 62.056,839.32 65.8,832.768 C66.34,831.832 66.808,831.148 67.168,830.716 C67.744,830.14 68.068,829.6 68.068,829.132 L68.068,829.132 Z M82.432,845.08 C82.432,843.676 82.036,842.38 81.244,841.228 C80.416,840.112 79.372,839.32 78.112,838.888 C77.608,838.744 77.32,838.672 77.248,838.672 C76.96,838.672 76.636,838.852 76.204,839.14 C75.7,839.428 75.304,839.644 75.016,839.752 C73.792,840.364 72.784,841.444 72.064,842.956 C71.344,844.324 71.02,845.8 71.02,847.348 C71.02,849.184 71.488,850.696 72.496,851.884 C73.504,853.036 74.764,853.648 76.276,853.648 C78.004,853.648 79.48,852.856 80.668,851.2 C81.82,849.544 82.432,847.528 82.432,845.08 L82.432,845.08 Z M79.588,845.62 C79.588,846.844 79.228,847.96 78.58,849.004 C77.86,850.084 77.104,850.624 76.24,850.624 C75.52,850.624 74.944,850.3 74.512,849.616 C74.044,848.968 73.828,848.212 73.828,847.348 C73.828,846.196 74.08,845.116 74.656,844.108 C75.304,842.956 76.132,842.344 77.14,842.344 C77.5,842.56 77.968,842.668 78.544,842.668 C79.228,843.1 79.588,844.108 79.588,845.62 L79.588,845.62 Z M101.296,841.048 C101.296,840.04 100.864,839.536 100,839.536 C99.568,839.536 99.208,839.788 98.848,840.292 C94.312,846.952 91.216,850.264 89.524,850.264 C89.236,850.264 89.092,850.12 89.092,849.832 C89.092,849.256 89.308,847.924 89.776,845.764 C90.208,843.676 90.424,842.272 90.424,841.624 C90.424,840.112 89.92,839.32 88.948,839.32 C88.588,839.32 88.3,839.5 88.048,839.86 C87.76,840.22 87.616,840.58 87.616,840.94 C87.616,841.048 87.616,841.192 87.652,841.336 L87.652,841.732 C87.652,842.308 87.364,843.856 86.86,846.412 C86.356,848.608 86.14,850.048 86.14,850.768 C86.14,851.632 86.428,852.28 87.004,852.748 C87.544,853.18 88.228,853.396 89.092,853.396 C91,853.396 93.7,851.38 97.228,847.312 C96.94,849.688 96.796,851.164 96.796,851.776 C96.616,852.064 96.544,852.316 96.544,852.604 C96.544,853.036 96.724,853.36 97.084,853.576 C97.408,853.792 97.804,853.936 98.236,853.936 C98.74,853.936 99.136,853.72 99.424,853.288 C99.712,852.892 99.856,852.424 99.856,851.884 C99.856,851.776 99.82,851.488 99.748,851.02 C99.676,850.588 99.64,850.228 99.64,849.94 C99.64,849.436 99.784,848.248 100.108,846.376 C100.468,844.324 100.756,842.92 101.044,842.164 C101.188,841.66 101.296,841.3 101.296,841.048 L101.296,841.048 Z M129.88,827.584 C129.88,826.648 129.448,826.18 128.584,826.18 C127.828,826.18 127.36,826.54 127.216,827.26 C126.424,830.428 125.812,835.072 125.38,841.12 C124.624,840.472 123.976,840.112 123.436,840.112 C121.924,840.112 120.34,841.3 118.648,843.64 C116.92,846.016 116.056,848.104 116.056,849.868 C116.056,851.2 116.38,852.244 117.064,853 C117.748,853.792 118.72,854.188 119.98,854.188 C120.916,854.188 121.996,853.72 123.148,852.784 C124.228,851.92 124.984,850.948 125.488,849.904 C125.848,853.072 126.1,855.052 126.244,855.844 C126.388,856.78 126.82,857.284 127.54,857.284 C127.864,857.284 128.188,857.14 128.512,856.852 C128.8,856.564 128.944,856.24 128.944,855.88 C128.944,855.736 128.836,855.16 128.692,854.152 C128.26,851.668 128.044,848.572 128.044,844.828 C128.044,842.848 128.116,840.148 128.332,836.764 C128.62,836.512 128.8,836.152 128.908,835.72 C128.908,835.504 128.944,835.072 128.98,834.496 C128.98,833.452 129.196,831.904 129.556,829.888 C129.772,828.592 129.88,827.836 129.88,827.584 L129.88,827.584 Z M124.552,845.224 C124.192,846.196 123.904,846.952 123.688,847.456 C123.256,848.356 122.68,849.148 122.032,849.832 C121.204,850.696 120.412,851.092 119.692,851.092 C119.044,851.092 118.72,850.66 118.72,849.76 C118.72,848.788 119.152,847.672 120.088,846.412 C121.636,844.324 122.716,843.244 123.292,843.244 C123.292,843.244 123.4,843.28 123.544,843.28 C123.796,844.288 124.12,844.936 124.552,845.224 L124.552,845.224 Z M140.14,827.584 C140.14,826.072 139.528,825.28 138.304,825.136 C137.296,825.496 136.792,826.036 136.792,826.792 C136.792,828.304 137.296,829.24 138.34,829.6 C138.628,829.708 138.844,829.744 138.952,829.744 C139.744,829.744 140.14,829.024 140.14,827.584 L140.14,827.584 Z M138.484,841.516 C138.484,840.004 137.692,839.248 136.108,839.248 C135.532,839.536 135.28,839.932 135.28,840.4 C135.28,840.544 135.316,840.832 135.388,841.264 C134.416,845.332 133.948,848.068 133.948,849.472 C133.948,852.424 134.74,853.9 136.396,853.9 C136.612,853.9 136.828,853.792 137.044,853.576 C137.26,853.36 137.404,853.18 137.404,852.964 C137.404,852.316 137.152,851.776 136.684,851.344 C136.756,849.184 137.152,846.736 137.872,843.928 L138.484,841.516 Z M156.412,827.584 C156.412,826.648 155.98,826.18 155.116,826.18 C154.36,826.18 153.892,826.54 153.748,827.26 C152.956,830.428 152.344,835.072 151.912,841.12 C151.156,840.472 150.508,840.112 149.968,840.112 C148.456,840.112 146.872,841.3 145.18,843.64 C143.452,846.016 142.588,848.104 142.588,849.868 C142.588,851.2 142.912,852.244 143.596,853 C144.28,853.792 145.252,854.188 146.512,854.188 C147.448,854.188 148.528,853.72 149.68,852.784 C150.76,851.92 151.516,850.948 152.02,849.904 C152.38,853.072 152.632,855.052 152.776,855.844 C152.92,856.78 153.352,857.284 154.072,857.284 C154.396,857.284 154.72,857.14 155.044,856.852 C155.332,856.564 155.476,856.24 155.476,855.88 C155.476,855.736 155.368,855.16 155.224,854.152 C154.792,851.668 154.576,848.572 154.576,844.828 C154.576,842.848 154.648,840.148 154.864,836.764 C155.152,836.512 155.332,836.152 155.44,835.72 C155.44,835.504 155.476,835.072 155.512,834.496 C155.512,833.452 155.728,831.904 156.088,829.888 C156.304,828.592 156.412,827.836 156.412,827.584 L156.412,827.584 Z M151.084,845.224 C150.724,846.196 150.436,846.952 150.22,847.456 C149.788,848.356 149.212,849.148 148.564,849.832 C147.736,850.696 146.944,851.092 146.224,851.092 C145.576,851.092 145.252,850.66 145.252,849.76 C145.252,848.788 145.684,847.672 146.62,846.412 C148.168,844.324 149.248,843.244 149.824,843.244 C149.824,843.244 149.932,843.28 150.076,843.28 C150.328,844.288 150.652,844.936 151.084,845.224 L151.084,845.224 Z M173.224,842.668 C173.224,842.128 172.972,841.696 172.54,841.336 C172.108,841.012 171.64,840.832 171.136,840.796 C168.22,842.416 165.484,844.792 162.928,847.888 C162.928,846.088 163.108,844.252 163.468,842.344 C163.648,841.48 163.828,840.688 164.008,839.968 C164.008,839.392 163.828,838.888 163.468,838.42 C163.108,838.024 162.64,837.808 162.1,837.808 C161.668,837.808 161.416,838.096 161.272,838.6 C160.48,841.516 160.084,844.36 160.084,847.168 C160.084,851.452 160.804,853.576 162.316,853.576 C162.676,853.576 163.036,853.252 163.396,852.676 C163.612,852.244 163.828,851.776 164.08,851.344 C165.304,849.328 167.392,847.204 170.38,844.936 L169.84,849.544 C169.696,850.876 169.624,851.56 169.624,851.596 C169.624,852.172 169.804,852.676 170.164,853.144 C170.524,853.576 170.956,853.792 171.496,853.792 C172,853.792 172.288,853.432 172.36,852.784 C172.936,847.708 173.224,844.324 173.224,842.668 L173.224,842.668 Z M183.808,821.86 C183.808,821.464 183.664,821.104 183.412,820.816 C183.16,820.528 182.836,820.348 182.476,820.348 C181.648,820.348 181.036,820.672 180.676,821.248 C180.136,822.04 179.884,822.904 179.884,823.804 C179.884,824.02 179.848,824.236 179.776,824.38 C179.308,825.604 178.624,826.792 177.688,827.98 C177.4,828.34 177.256,828.7 177.256,829.06 C177.256,829.924 177.688,830.356 178.588,830.356 C179.02,830.356 179.596,829.924 180.316,829.024 C180.82,828.376 181.504,827.224 182.368,825.496 C183.304,823.66 183.808,822.436 183.808,821.86 L183.808,821.86 Z M200.188,840.364 C200.188,839.212 199.144,838.6 197.056,838.492 C195.544,838.456 194.644,838.42 194.392,838.42 C194.896,836.044 195.364,834.136 195.796,832.66 C196.12,831.652 196.408,830.788 196.624,830.032 C196.516,828.952 196.012,828.412 195.076,828.412 C194.428,828.412 193.996,828.808 193.78,829.564 C193.132,831.724 192.34,834.676 191.404,838.492 C190.54,838.492 190,838.6 189.712,838.744 C189.28,838.96 189.064,839.392 189.064,840.04 C189.064,841.084 189.604,841.588 190.72,841.588 L189.64,846.772 C189.172,849.112 188.956,850.84 188.956,851.92 C188.956,853.864 189.532,854.872 190.72,854.872 C191.08,854.872 191.404,854.728 191.764,854.44 C192.088,854.116 192.268,853.792 192.268,853.432 C192.268,852.856 192.088,852.46 191.728,852.172 C191.8,850.588 192.016,848.752 192.448,846.736 C192.592,846.052 192.988,844.324 193.636,841.516 C193.996,841.516 194.644,841.552 195.652,841.552 C196.66,841.588 197.272,841.588 197.524,841.588 C197.884,841.948 198.352,842.092 198.856,842.092 C199.18,842.092 199.504,841.912 199.792,841.552 C200.044,841.192 200.188,840.796 200.188,840.364 L200.188,840.364 Z M226.864,842.128 C226.864,841.84 226.756,841.552 226.54,841.264 C226.54,840.04 226.216,839.032 225.604,838.276 C224.956,837.52 224.092,837.124 223.084,837.124 C220.672,837.124 218.62,838.168 216.928,840.22 C215.308,842.164 214.516,844.324 214.516,846.7 C214.516,848.104 214.876,849.22 215.632,850.012 C216.352,850.84 217.396,851.236 218.692,851.236 C220.204,851.236 221.5,850.732 222.58,849.688 C222.076,854.44 219.7,857.212 215.452,857.932 C215.236,857.824 214.948,857.788 214.624,857.788 C214.192,857.788 213.724,857.968 213.292,858.4 C212.86,858.796 212.68,859.228 212.68,859.696 C212.68,860.74 213.184,861.28 214.192,861.28 C214.84,861.28 215.524,861.172 216.244,860.992 C222.148,859.264 225.28,854.728 225.604,847.384 C225.676,845.836 225.784,844.9 225.964,844.54 C226.54,843.388 226.864,842.596 226.864,842.128 L226.864,842.128 Z M223.408,842.272 C223.264,842.632 223.156,842.884 223.156,843.028 C222.94,844.612 222.508,845.836 221.86,846.736 C221.032,847.924 220.024,848.5 218.872,848.5 C217.936,848.5 217.504,847.852 217.504,846.556 C217.504,845.296 217.936,844 218.836,842.704 C219.808,841.3 220.924,840.58 222.148,840.58 C222.904,840.58 223.336,841.156 223.408,842.272 L223.408,842.272 Z M244.468,852.352 C244.468,851.992 244.324,851.632 244.036,851.272 C243.748,850.984 243.388,850.804 243.028,850.804 C242.74,850.804 242.272,850.876 241.66,850.948 C241.048,851.02 240.58,851.056 240.292,851.056 C239.212,851.056 238.276,850.552 237.412,849.508 C241.012,847.564 242.812,845.26 242.812,842.596 C242.812,841.588 242.38,840.616 241.516,839.752 C240.652,838.888 239.788,838.456 238.888,838.456 C237.34,838.456 236.08,839.356 235.072,841.12 C234.208,842.632 233.776,844.252 233.776,845.98 C233.776,846.34 233.812,846.844 233.92,847.456 L233.092,847.456 C232.588,847.456 232.12,847.276 231.616,846.916 C231.112,846.556 230.752,846.376 230.536,846.376 C229.6,846.376 229.132,846.88 229.132,847.888 C229.132,848.68 229.708,849.328 230.932,849.832 C231.868,850.228 232.768,850.408 233.704,850.408 L234.784,850.408 C236.08,852.892 238.096,854.116 240.832,854.116 C243.244,854.116 244.468,853.504 244.468,852.352 L244.468,852.352 Z M239.968,842.74 C239.968,843.928 238.888,845.224 236.728,846.628 L236.728,845.98 C236.728,845.008 236.872,844.072 237.232,843.172 C237.592,842.092 238.096,841.552 238.744,841.552 C239.032,841.552 239.32,841.696 239.608,841.912 C239.824,842.2 239.968,842.452 239.968,842.74 L239.968,842.74 Z M259.48,840.364 C259.48,839.212 258.436,838.6 256.348,838.492 C254.836,838.456 253.936,838.42 253.684,838.42 C254.188,836.044 254.656,834.136 255.088,832.66 C255.412,831.652 255.7,830.788 255.916,830.032 C255.808,828.952 255.304,828.412 254.368,828.412 C253.72,828.412 253.288,828.808 253.072,829.564 C252.424,831.724 251.632,834.676 250.696,838.492 C249.832,838.492 249.292,838.6 249.004,838.744 C248.572,838.96 248.356,839.392 248.356,840.04 C248.356,841.084 248.896,841.588 250.012,841.588 L248.932,846.772 C248.464,849.112 248.248,850.84 248.248,851.92 C248.248,853.864 248.824,854.872 250.012,854.872 C250.372,854.872 250.696,854.728 251.056,854.44 C251.38,854.116 251.56,853.792 251.56,853.432 C251.56,852.856 251.38,852.46 251.02,852.172 C251.092,850.588 251.308,848.752 251.74,846.736 C251.884,846.052 252.28,844.324 252.928,841.516 C253.288,841.516 253.936,841.552 254.944,841.552 C255.952,841.588 256.564,841.588 256.816,841.588 C257.176,841.948 257.644,842.092 258.148,842.092 C258.472,842.092 258.796,841.912 259.084,841.552 C259.336,841.192 259.48,840.796 259.48,840.364 L259.48,840.364 Z M285.976,840.364 C285.976,839.212 284.932,838.6 282.844,838.492 C281.332,838.456 280.432,838.42 280.18,838.42 C280.684,836.044 281.152,834.136 281.584,832.66 C281.908,831.652 282.196,830.788 282.412,830.032 C282.304,828.952 281.8,828.412 280.864,828.412 C280.216,828.412 279.784,828.808 279.568,829.564 C278.92,831.724 278.128,834.676 277.192,838.492 C276.328,838.492 275.788,838.6 275.5,838.744 C275.068,838.96 274.852,839.392 274.852,840.04 C274.852,841.084 275.392,841.588 276.508,841.588 L275.428,846.772 C274.96,849.112 274.744,850.84 274.744,851.92 C274.744,853.864 275.32,854.872 276.508,854.872 C276.868,854.872 277.192,854.728 277.552,854.44 C277.876,854.116 278.056,853.792 278.056,853.432 C278.056,852.856 277.876,852.46 277.516,852.172 C277.588,850.588 277.804,848.752 278.236,846.736 C278.38,846.052 278.776,844.324 279.424,841.516 C279.784,841.516 280.432,841.552 281.44,841.552 C282.448,841.588 283.06,841.588 283.312,841.588 C283.672,841.948 284.14,842.092 284.644,842.092 C284.968,842.092 285.292,841.912 285.58,841.552 C285.832,841.192 285.976,840.796 285.976,840.364 L285.976,840.364 Z M301.24,853.288 C301.132,852.352 301.024,851.596 300.952,850.948 C300.736,849.256 300.628,847.672 300.628,846.16 C300.628,845.944 300.628,845.368 300.7,844.468 C300.772,843.568 300.844,843.064 300.844,842.956 C300.844,842.38 300.628,841.84 300.268,841.336 C299.908,840.904 299.476,840.652 298.936,840.652 C298.288,840.652 296.884,841.48 294.796,843.136 C292.78,844.684 291.412,845.944 290.62,846.916 C291.016,843.604 291.304,841.48 291.484,840.544 L292.564,834.892 C292.924,832.804 293.248,831.256 293.464,830.212 C293.644,829.204 293.752,828.628 293.752,828.448 C293.752,827.944 293.572,827.44 293.212,826.936 C292.888,826.432 292.492,826.18 292.024,826.18 C291.448,826.18 291.052,826.792 290.836,827.98 L288.748,839.464 C288.1,842.776 287.812,846.16 287.812,849.616 C287.812,849.832 287.812,850.228 287.848,850.768 L287.848,851.74 C287.848,852.244 288.028,852.748 288.388,853.216 C288.784,853.648 289.252,853.864 289.792,853.864 C290.08,853.864 290.404,853.468 290.836,852.676 C291.124,852.136 291.376,851.56 291.628,850.984 C292.564,849.292 294.652,847.24 297.892,844.828 L298.072,849.184 C298.216,852.64 299.008,854.332 300.52,854.332 C300.952,854.332 301.168,853.972 301.24,853.288 L301.24,853.288 Z M319.204,852.352 C319.204,851.992 319.06,851.632 318.772,851.272 C318.484,850.984 318.124,850.804 317.764,850.804 C317.476,850.804 317.008,850.876 316.396,850.948 C315.784,851.02 315.316,851.056 315.028,851.056 C313.948,851.056 313.012,850.552 312.148,849.508 C315.748,847.564 317.548,845.26 317.548,842.596 C317.548,841.588 317.116,840.616 316.252,839.752 C315.388,838.888 314.524,838.456 313.624,838.456 C312.076,838.456 310.816,839.356 309.808,841.12 C308.944,842.632 308.512,844.252 308.512,845.98 C308.512,846.34 308.548,846.844 308.656,847.456 L307.828,847.456 C307.324,847.456 306.856,847.276 306.352,846.916 C305.848,846.556 305.488,846.376 305.272,846.376 C304.336,846.376 303.868,846.88 303.868,847.888 C303.868,848.68 304.444,849.328 305.668,849.832 C306.604,850.228 307.504,850.408 308.44,850.408 L309.52,850.408 C310.816,852.892 312.832,854.116 315.568,854.116 C317.98,854.116 319.204,853.504 319.204,852.352 L319.204,852.352 Z M314.704,842.74 C314.704,843.928 313.624,845.224 311.464,846.628 L311.464,845.98 C311.464,845.008 311.608,844.072 311.968,843.172 C312.328,842.092 312.832,841.552 313.48,841.552 C313.768,841.552 314.056,841.696 314.344,841.912 C314.56,842.2 314.704,842.452 314.704,842.74 L314.704,842.74 Z M347.212,840.544 C347.212,838.816 346.816,837.376 346.024,836.224 C345.16,834.964 343.9,834.316 342.316,834.316 C340.048,834.316 338.284,835.9 337.024,839.068 C336.16,841.264 335.728,843.784 335.728,846.592 C335.728,846.952 335.728,847.24 335.764,847.42 C334.756,847.78 334.288,848.32 334.288,849.076 C334.288,850.012 334.756,850.516 335.764,850.588 C335.836,851.164 335.872,852.028 335.872,853.18 C335.872,855.484 335.728,857.104 335.512,858.112 C335.26,859.084 335.152,859.624 335.152,859.732 C335.152,860.128 335.296,860.488 335.584,860.812 C335.872,861.1 336.232,861.28 336.628,861.28 C337.384,861.28 337.924,860.524 338.248,859.048 C338.608,857.392 338.788,855.7 338.788,854.044 C338.788,852.532 338.716,851.056 338.608,849.616 C344.332,847.528 347.212,844.504 347.212,840.544 L347.212,840.544 Z M344.332,839.932 C344.332,842.884 342.424,845.044 338.644,846.412 C338.644,844.468 338.968,842.488 339.652,840.544 C340.408,838.42 341.308,837.34 342.316,837.34 C342.928,837.34 343.432,837.628 343.828,838.132 C344.152,838.636 344.332,839.248 344.332,839.932 L344.332,839.932 Z M363.844,844.648 C363.844,844.324 363.664,843.964 363.376,843.604 C363.376,842.776 363.232,842.056 363.016,841.408 C363.052,841.264 363.088,841.084 363.088,840.904 C363.088,840.472 362.836,840.04 362.404,839.68 C361.936,839.32 361.468,839.104 361,839.104 C359.02,839.104 356.86,840.256 354.484,842.488 C352,844.792 350.776,847.024 350.776,849.112 C350.776,850.228 351.136,851.2 351.928,852.064 C352.684,852.964 353.584,853.396 354.628,853.396 C356.248,853.396 358.048,852.388 360.064,850.372 C360.244,853.108 360.856,854.512 361.9,854.512 C362.26,854.512 362.62,854.368 362.944,854.152 C363.232,853.864 363.412,853.504 363.412,853.144 C363.412,853.036 363.304,852.604 363.16,851.74 C362.98,850.912 362.908,850.264 362.908,849.832 C362.908,848.392 363.124,846.952 363.628,845.44 C363.772,845.044 363.844,844.792 363.844,844.648 L363.844,844.648 Z M360.568,843.604 C360.568,844.828 359.848,846.268 358.48,847.924 C357.112,849.58 355.852,850.372 354.772,850.372 C354.016,850.372 353.656,849.94 353.656,849.04 C353.656,847.888 354.556,846.448 356.392,844.684 C358.048,843.1 359.236,842.272 359.92,842.272 C360.352,842.272 360.568,842.74 360.568,843.604 L360.568,843.604 Z M377.776,839.932 C377.776,839.68 377.704,839.392 377.56,839.104 C377.416,838.024 376.516,837.484 374.86,837.484 C373.78,837.484 373.096,837.808 372.736,838.384 C371.044,838.996 370.216,840.148 370.216,841.804 C370.216,842.812 370.648,844.432 371.512,846.592 C372.376,848.752 372.844,850.12 372.844,850.624 C372.844,851.488 372.232,851.884 371.044,851.884 C370.612,851.884 370,851.848 369.28,851.74 C368.56,851.668 368.164,851.596 368.092,851.596 C367.768,851.596 367.48,851.812 367.264,852.172 C366.976,852.532 366.868,852.928 366.868,853.324 C366.868,854.332 368.128,854.872 370.72,854.872 C372.304,854.872 373.564,854.512 374.5,853.828 C375.328,853.144 375.76,852.316 375.76,851.272 C375.76,850.192 375.292,848.5 374.428,846.232 C373.528,844 373.096,842.668 373.096,842.236 C373.096,841.552 373.564,841.192 374.5,841.192 C374.716,841.192 375.04,841.228 375.472,841.228 C375.904,841.3 376.228,841.3 376.408,841.3 C376.768,841.3 377.092,841.192 377.38,840.904 C377.632,840.688 377.776,840.364 377.776,839.932 L377.776,839.932 Z M390.916,839.932 C390.916,839.68 390.844,839.392 390.7,839.104 C390.556,838.024 389.656,837.484 388,837.484 C386.92,837.484 386.236,837.808 385.876,838.384 C384.184,838.996 383.356,840.148 383.356,841.804 C383.356,842.812 383.788,844.432 384.652,846.592 C385.516,848.752 385.984,850.12 385.984,850.624 C385.984,851.488 385.372,851.884 384.184,851.884 C383.752,851.884 383.14,851.848 382.42,851.74 C381.7,851.668 381.304,851.596 381.232,851.596 C380.908,851.596 380.62,851.812 380.404,852.172 C380.116,852.532 380.008,852.928 380.008,853.324 C380.008,854.332 381.268,854.872 383.86,854.872 C385.444,854.872 386.704,854.512 387.64,853.828 C388.468,853.144 388.9,852.316 388.9,851.272 C388.9,850.192 388.432,848.5 387.568,846.232 C386.668,844 386.236,842.668 386.236,842.236 C386.236,841.552 386.704,841.192 387.64,841.192 C387.856,841.192 388.18,841.228 388.612,841.228 C389.044,841.3 389.368,841.3 389.548,841.3 C389.908,841.3 390.232,841.192 390.52,840.904 C390.772,840.688 390.916,840.364 390.916,839.932 L390.916,839.932 Z M400.744,827.584 C400.744,826.072 400.132,825.28 398.908,825.136 C397.9,825.496 397.396,826.036 397.396,826.792 C397.396,828.304 397.9,829.24 398.944,829.6 C399.232,829.708 399.448,829.744 399.556,829.744 C400.348,829.744 400.744,829.024 400.744,827.584 L400.744,827.584 Z M399.088,841.516 C399.088,840.004 398.296,839.248 396.712,839.248 C396.136,839.536 395.884,839.932 395.884,840.4 C395.884,840.544 395.92,840.832 395.992,841.264 C395.02,845.332 394.552,848.068 394.552,849.472 C394.552,852.424 395.344,853.9 397,853.9 C397.216,853.9 397.432,853.792 397.648,853.576 C397.864,853.36 398.008,853.18 398.008,852.964 C398.008,852.316 397.756,851.776 397.288,851.344 C397.36,849.184 397.756,846.736 398.476,843.928 L399.088,841.516 Z M417.196,842.668 C417.196,842.128 416.944,841.696 416.512,841.336 C416.08,841.012 415.612,840.832 415.108,840.796 C412.192,842.416 409.456,844.792 406.9,847.888 C406.9,846.088 407.08,844.252 407.44,842.344 C407.62,841.48 407.8,840.688 407.98,839.968 C407.98,839.392 407.8,838.888 407.44,838.42 C407.08,838.024 406.612,837.808 406.072,837.808 C405.64,837.808 405.388,838.096 405.244,838.6 C404.452,841.516 404.056,844.36 404.056,847.168 C404.056,851.452 404.776,853.576 406.288,853.576 C406.648,853.576 407.008,853.252 407.368,852.676 C407.584,852.244 407.8,851.776 408.052,851.344 C409.276,849.328 411.364,847.204 414.352,844.936 L413.812,849.544 C413.668,850.876 413.596,851.56 413.596,851.596 C413.596,852.172 413.776,852.676 414.136,853.144 C414.496,853.576 414.928,853.792 415.468,853.792 C415.972,853.792 416.26,853.432 416.332,852.784 C416.908,847.708 417.196,844.324 417.196,842.668 L417.196,842.668 Z M433.396,842.128 C433.396,841.84 433.288,841.552 433.072,841.264 C433.072,840.04 432.748,839.032 432.136,838.276 C431.488,837.52 430.624,837.124 429.616,837.124 C427.204,837.124 425.152,838.168 423.46,840.22 C421.84,842.164 421.048,844.324 421.048,846.7 C421.048,848.104 421.408,849.22 422.164,850.012 C422.884,850.84 423.928,851.236 425.224,851.236 C426.736,851.236 428.032,850.732 429.112,849.688 C428.608,854.44 426.232,857.212 421.984,857.932 C421.768,857.824 421.48,857.788 421.156,857.788 C420.724,857.788 420.256,857.968 419.824,858.4 C419.392,858.796 419.212,859.228 419.212,859.696 C419.212,860.74 419.716,861.28 420.724,861.28 C421.372,861.28 422.056,861.172 422.776,860.992 C428.68,859.264 431.812,854.728 432.136,847.384 C432.208,845.836 432.316,844.9 432.496,844.54 C433.072,843.388 433.396,842.596 433.396,842.128 L433.396,842.128 Z M429.94,842.272 C429.796,842.632 429.688,842.884 429.688,843.028 C429.472,844.612 429.04,845.836 428.392,846.736 C427.564,847.924 426.556,848.5 425.404,848.5 C424.468,848.5 424.036,847.852 424.036,846.556 C424.036,845.296 424.468,844 425.368,842.704 C426.34,841.3 427.456,840.58 428.68,840.58 C429.436,840.58 429.868,841.156 429.94,842.272 L429.94,842.272 Z M459.28,839.932 C459.28,839.68 459.208,839.392 459.064,839.104 C458.92,838.024 458.02,837.484 456.364,837.484 C455.284,837.484 454.6,837.808 454.24,838.384 C452.548,838.996 451.72,840.148 451.72,841.804 C451.72,842.812 452.152,844.432 453.016,846.592 C453.88,848.752 454.348,850.12 454.348,850.624 C454.348,851.488 453.736,851.884 452.548,851.884 C452.116,851.884 451.504,851.848 450.784,851.74 C450.064,851.668 449.668,851.596 449.596,851.596 C449.272,851.596 448.984,851.812 448.768,852.172 C448.48,852.532 448.372,852.928 448.372,853.324 C448.372,854.332 449.632,854.872 452.224,854.872 C453.808,854.872 455.068,854.512 456.004,853.828 C456.832,853.144 457.264,852.316 457.264,851.272 C457.264,850.192 456.796,848.5 455.932,846.232 C455.032,844 454.6,842.668 454.6,842.236 C454.6,841.552 455.068,841.192 456.004,841.192 C456.22,841.192 456.544,841.228 456.976,841.228 C457.408,841.3 457.732,841.3 457.912,841.3 C458.272,841.3 458.596,841.192 458.884,840.904 C459.136,840.688 459.28,840.364 459.28,839.932 L459.28,839.932 Z M473.284,849.688 C473.284,849.328 473.14,848.968 472.852,848.608 C472.564,848.32 472.24,848.14 471.88,848.14 C471.592,848.14 471.16,848.392 470.656,848.86 C470.224,849.22 469.792,849.58 469.432,849.94 C468.82,850.408 468.064,850.624 467.164,850.624 C465.724,850.624 465.04,849.76 465.04,847.96 C465.04,846.844 465.364,845.728 466.012,844.648 C466.66,843.568 467.452,842.668 468.424,842.02 C468.856,842.272 469.504,842.38 470.404,842.38 C470.872,842.38 471.34,842.2 471.808,841.768 C472.204,841.336 472.42,840.94 472.42,840.508 C472.42,839.932 472.204,839.5 471.772,839.14 C471.304,838.816 470.8,838.636 470.26,838.636 C467.992,838.636 465.976,839.824 464.248,842.164 C462.844,844.036 462.16,846.088 462.16,848.32 C462.16,849.904 462.664,851.164 463.672,852.172 C464.68,853.144 465.94,853.648 467.452,853.648 C468.82,853.648 470.224,853.108 471.592,852.028 C472.708,851.164 473.284,850.408 473.284,849.688 L473.284,849.688 Z M488.008,845.08 C488.008,843.676 487.612,842.38 486.82,841.228 C485.992,840.112 484.948,839.32 483.688,838.888 C483.184,838.744 482.896,838.672 482.824,838.672 C482.536,838.672 482.212,838.852 481.78,839.14 C481.276,839.428 480.88,839.644 480.592,839.752 C479.368,840.364 478.36,841.444 477.64,842.956 C476.92,844.324 476.596,845.8 476.596,847.348 C476.596,849.184 477.064,850.696 478.072,851.884 C479.08,853.036 480.34,853.648 481.852,853.648 C483.58,853.648 485.056,852.856 486.244,851.2 C487.396,849.544 488.008,847.528 488.008,845.08 L488.008,845.08 Z M485.164,845.62 C485.164,846.844 484.804,847.96 484.156,849.004 C483.436,850.084 482.68,850.624 481.816,850.624 C481.096,850.624 480.52,850.3 480.088,849.616 C479.62,848.968 479.404,848.212 479.404,847.348 C479.404,846.196 479.656,845.116 480.232,844.108 C480.88,842.956 481.708,842.344 482.716,842.344 C483.076,842.56 483.544,842.668 484.12,842.668 C484.804,843.1 485.164,844.108 485.164,845.62 L485.164,845.62 Z M505.072,840.652 C505.072,840.148 504.856,839.68 504.46,839.248 C504.028,838.816 503.596,838.6 503.128,838.6 C500.32,838.6 497.8,840.256 495.604,843.568 C495.388,842.056 495.136,840.976 494.848,840.328 C494.452,839.608 493.912,839.212 493.228,839.212 C492.94,839.212 492.688,839.392 492.508,839.68 C492.292,840.04 492.184,840.4 492.184,840.76 C492.184,842.344 492.508,843.604 493.156,844.504 C493.3,845.908 493.408,847.06 493.408,847.924 C493.408,848.896 493.3,849.76 493.12,850.552 C492.904,851.416 492.832,851.884 492.832,851.992 C492.832,852.604 492.976,853.108 493.336,853.576 C493.696,854.008 494.128,854.26 494.56,854.26 C494.992,854.26 495.352,853.936 495.568,853.288 C495.676,852.928 495.82,852.172 496,851.02 C496.648,846.628 498.448,843.712 501.364,842.272 C501.796,842.416 502.012,842.488 502.048,842.488 C502.624,842.488 503.272,842.308 503.992,841.876 C504.712,841.516 505.072,841.084 505.072,840.652 L505.072,840.652 Z M520.768,852.352 C520.768,851.992 520.624,851.632 520.336,851.272 C520.048,850.984 519.688,850.804 519.328,850.804 C519.04,850.804 518.572,850.876 517.96,850.948 C517.348,851.02 516.88,851.056 516.592,851.056 C515.512,851.056 514.576,850.552 513.712,849.508 C517.312,847.564 519.112,845.26 519.112,842.596 C519.112,841.588 518.68,840.616 517.816,839.752 C516.952,838.888 516.088,838.456 515.188,838.456 C513.64,838.456 512.38,839.356 511.372,841.12 C510.508,842.632 510.076,844.252 510.076,845.98 C510.076,846.34 510.112,846.844 510.22,847.456 L509.392,847.456 C508.888,847.456 508.42,847.276 507.916,846.916 C507.412,846.556 507.052,846.376 506.836,846.376 C505.9,846.376 505.432,846.88 505.432,847.888 C505.432,848.68 506.008,849.328 507.232,849.832 C508.168,850.228 509.068,850.408 510.004,850.408 L511.084,850.408 C512.38,852.892 514.396,854.116 517.132,854.116 C519.544,854.116 520.768,853.504 520.768,852.352 L520.768,852.352 Z M516.268,842.74 C516.268,843.928 515.188,845.224 513.028,846.628 L513.028,845.98 C513.028,845.008 513.172,844.072 513.532,843.172 C513.892,842.092 514.396,841.552 515.044,841.552 C515.332,841.552 515.62,841.696 515.908,841.912 C516.124,842.2 516.268,842.452 516.268,842.74 L516.268,842.74 Z M540.784,841.156 C540.784,840.58 540.532,840.04 540.1,839.536 C539.596,838.996 539.092,838.708 538.552,838.708 C538.192,838.708 537.796,838.996 537.436,839.572 C537.04,840.148 536.86,840.616 536.86,841.048 C536.86,841.264 536.932,841.48 537.076,841.696 C537.58,842.56 538.3,843.064 539.164,843.208 C539.596,843.136 539.992,842.884 540.352,842.488 C540.64,842.092 540.784,841.66 540.784,841.156 L540.784,841.156 Z M540.64,852.568 C540.64,850.48 540.1,849.436 539.092,849.436 C538.804,849.436 538.552,849.472 538.372,849.544 C537.976,849.688 537.652,850.048 537.364,850.588 C537.076,851.164 536.968,851.704 536.968,852.208 C536.968,852.964 537.436,853.54 538.372,854.008 C538.696,854.152 538.984,854.26 539.2,854.26 C540.136,854.26 540.64,853.684 540.64,852.568 L540.64,852.568 Z M556.12,823.804 C556.12,822.724 555.544,822.148 554.392,822.148 C553.6,822.148 552.808,822.544 552.088,823.264 C551.368,823.984 550.936,824.56 550.828,824.956 C549.208,827.08 547.912,829.708 546.976,832.876 C546.04,835.936 545.572,838.888 545.572,841.768 C545.572,845.26 546.076,848.608 547.156,851.776 C548.38,855.376 550.072,858.076 552.268,859.876 C552.988,860.452 553.672,860.776 554.32,860.776 C555.328,860.776 555.832,860.236 555.832,859.192 C555.832,858.4 555.508,857.824 554.896,857.392 C553.672,856.6 552.736,855.772 552.088,854.944 C550.864,853.324 549.964,851.272 549.352,848.716 C548.776,846.556 548.524,844.324 548.524,842.02 C548.524,839.644 548.884,837.16 549.604,834.568 C550.324,831.832 551.368,829.564 552.7,827.728 C553.24,826.936 553.888,826.252 554.644,825.676 C555.616,824.956 556.12,824.308 556.12,823.804 L556.12,823.804 Z" id="Aww!" sketch:type="MSShapeGroup"></path>
        </g>
    </g>
</svg>