<?xml version="1.0" encoding="UTF-8" standalone="no"?>
<svg width="100%" height="100%" viewBox="0 0 65 67" version="1.1" xmlns="http://www.w3.org/2000/svg" xmlns:xlink="http://www.w3.org/1999/xlink" xmlns:sketch="http://www.bohemiancoding.com/sketch/ns">
    <!-- Generator: Sketch 3.3.1 (12002) - http://www.bohemiancoding.com/sketch -->
    <title>profile selected</title>
    <desc>Created with Sketch.</desc>
    <defs>
        <filter x="-50%" y="-50%" width="200%" height="200%" filterUnits="objectBoundingBox" id="filter-1">
            <feOffset dx="0" dy="2" in="SourceAlpha" result="shadowOffsetOuter1"></feOffset>
            <feGaussianBlur stdDeviation="2" in="shadowOffsetOuter1" result="shadowBlurOuter1"></feGaussianBlur>
            <feColorMatrix values="0 0 0 0 0   0 0 0 0 0   0 0 0 0 0  0 0 0 0.35 0" in="shadowBlurOuter1" type="matrix" result="shadowMatrixOuter1"></feColorMatrix>
            <feMerge>
                <feMergeNode in="shadowMatrixOuter1"></feMergeNode>
                <feMergeNode in="SourceGraphic"></feMergeNode>
            </feMerge>
        </filter>
    </defs>
    <g id="art-1" stroke="none" stroke-width="1" fill="none" fill-rule="evenodd" sketch:type="MSPage">
        <g id="Profile" sketch:type="MSLayerGroup" transform="translate(-526.000000, -1058.000000)" filter="url(#filter-1)" fill="#EB31BC">
            <g id="profile-selected" transform="translate(531.000000, 1060.000000)" sketch:type="MSShapeGroup">
                <path d="M55,55 C55,55 55,51.21875 54.6848958,49.2421875 C54.4270833,47.6809896 52.2643229,45.6184896 43.0690104,42.2382813 C34.0169271,38.9153646 34.5755208,40.5338542 34.5755208,34.4179688 C34.5755208,30.4505208 36.5950521,32.7565104 37.8841146,25.2226563 C38.3854167,22.2578125 38.7864583,24.234375 39.875,19.4791667 C40.4479167,16.9869792 39.4882813,16.8007813 39.6028646,15.6119792 C39.7174479,14.4231771 39.8320313,13.3632813 40.046875,10.9283854 C40.3046875,7.92057292 37.5117188,0 27.5,0 C17.4882812,0 14.6953125,7.92057292 14.9674479,10.9427083 C15.1822917,13.3632813 15.296875,14.4375 15.4114583,15.6263021 C15.5260417,16.8151042 14.5664062,17.0013021 15.1393229,19.4934896 C16.2278646,24.234375 16.6289062,22.2578125 17.1302083,25.2369792 C18.4192708,32.7708333 20.4388021,30.4648438 20.4388021,34.4322917 C20.4388021,40.5625 20.9973958,38.9440104 11.9453125,42.2526042 C2.75,45.6184896 0.572916667,47.6953125 0.329427083,49.2565104 C0,51.21875 0,55 0,55 L27.5,55 L55,55 L55,55 Z" id="Shape-Copy-5"></path>
            </g>
        </g>
    </g>
</svg>