<?xml version="1.0" encoding="UTF-8" standalone="no"?>
<svg width="500px" height="388px" viewBox="0 0 500 388" version="1.1" xmlns="http://www.w3.org/2000/svg" xmlns:xlink="http://www.w3.org/1999/xlink" xmlns:sketch="http://www.bohemiancoding.com/sketch/ns">
    <!-- Generator: Sketch 3.3.1 (12002) - http://www.bohemiancoding.com/sketch -->
    <title>SOX Pack Image</title>
    <desc>Created with Sketch.</desc>
    <defs></defs>
    <g id="art-1" stroke="none" stroke-width="1" fill="none" fill-rule="evenodd" sketch:type="MSPage">
        <g id="Hub-Multiple-Packs" sketch:type="MSLayerGroup" transform="translate(-70.000000, -314.000000)">
            <g id="SOX-Pack-Image" transform="translate(70.000000, 313.000000)" sketch:type="MSShapeGroup">
                <g id="Group">
                    <g transform="translate(0.000000, 62.500000)">
                        <rect id="Rectangle-path" fill="#E6E5E5" x="0" y="2.44" width="218.4225" height="137.9675"></rect>
                        <g transform="translate(15.000000, 17.500000)">
                            <rect id="Rectangle-path" fill="#21D8DE" x="2.3125" y="2.19" width="183.8025" height="103.46"></rect>
                            <path d="M186.1875,105.6525 L94.215,41.855 L2.24,105.6525 L186.1875,105.6525 Z" id="Shape" fill="#16C6CC"></path>
                            <g id="Shape">
                                <path d="M186.175,2.2 L117.45,57.95 L94.225,41.85 L71,57.95 L2.25,2.2 L186.175,2.2 Z" fill="#1CB7BB"></path>
                                <path d="M117.45,57.95 L94.225,76.8 L71,57.95 L94.225,41.85 L117.45,57.95 Z" fill="#13A8AC"></path>
                            </g>
                            <path d="M186.1875,2.19 L94.215,65.9825 L2.24,2.19 L186.1875,2.19 Z" id="Shape" fill="#16C6CC"></path>
                        </g>
                        <path d="M17.24,175.8475 L52.7,140.4075 L17.24,140.4075 L17.24,175.8475 Z" id="Shape" fill="#E6E5E5"></path>
                    </g>
                    <g transform="translate(47.500000, 157.500000)">
                        <g transform="translate(42.500000, 0.000000)">
                            <path d="M345.2125,3.73 C342.97,1.5025 340.025,0.3775 337.0625,0.3775 L12.6325,0.3775 C9.7,0.3775 6.7475,1.5025 4.485,3.73 C2.2575,5.9825 1.1275,8.9175 1.1275,11.8675 L1.1275,212.36 L348.5675,212.36 L348.5675,11.8675 C348.5675,8.9175 347.4525,5.9825 345.2125,3.73 L345.2125,3.73 Z" id="Shape" fill="#242D3C"></path>
                            <g transform="translate(167.500000, 2.500000)" id="Shape">
                                <path d="M12.2125,6.7275 C12.2125,9.4175 10.0375,11.595 7.3475,11.595 C4.6475,11.595 2.475,9.4175 2.475,6.7275 C2.475,4.0325 4.6475,1.855 7.3475,1.855 C10.0375,1.855 12.2125,4.0325 12.2125,6.7275 L12.2125,6.7275 Z" fill="#3E4959"></path>
                                <path d="M9.435,6.7275 C9.435,7.8825 8.5,8.8125 7.345,8.8125 C6.2,8.8125 5.2475,7.88 5.2475,6.7275 C5.2475,5.575 6.2,4.6325 7.345,4.6325 C8.5,4.6325 9.435,5.5725 9.435,6.7275 L9.435,6.7275 Z" fill="#FFFFFF"></path>
                            </g>
                            <rect id="Rectangle-path" fill="#FFFFFF" x="19.215" y="18.0775" width="311.27" height="194.2825"></rect>
                        </g>
                        <g transform="translate(0.000000, 210.000000)">
                            <path d="M0.8775,9.14 C17.54,16.51 35.965,20.5875 55.3475,20.5875 L379.35,20.5875 C398.7275,20.5875 417.1375,16.51 433.8075,9.14 L0.8775,9.14 L0.8775,9.14 Z" id="Shape" fill="#CCCBCA"></path>
                            <rect id="Rectangle-path" fill="#E6E5E5" x="0.8775" y="2.36" width="432.9325" height="6.78"></rect>
                            <rect id="Rectangle-path" fill="#242D3C" x="179.3225" y="2.36" width="76.0375" height="3.3875"></rect>
                        </g>
                    </g>
                    <g transform="translate(187.500000, 195.000000)">
                        <g id="Shape">
                            <path d="M77.345,139.175 C43.4075,139.175 15.8975,111.665 15.8975,77.7225 C15.8975,52.115 31.5625,30.1725 53.8225,20.9375 L47.9525,6.7525 C20.1175,18.2625 0.5275,45.7325 0.5275,77.7375 C0.5275,120.15 34.9225,154.54 77.34,154.54 C98.5375,154.54 117.745,145.97 131.6575,132.06 L120.7925,121.1875 C109.665,132.3025 94.3125,139.175 77.345,139.175 L77.345,139.175 Z" fill="#242D3C"></path>
                            <path d="M138.8025,77.7275 C138.8025,94.7 131.92,110.06 120.8025,121.1825 L131.6675,132.045 C145.5725,118.145 154.1625,98.9425 154.1625,77.7275 L138.8025,77.7275 L138.8025,77.7275 Z" fill="#E6E5E5"></path>
                            <path d="M77.345,16.27 C111.2925,16.27 138.8025,43.78 138.8025,77.7225 C138.8025,77.7225 138.8025,77.7225 138.8025,77.7275 L154.1625,77.7275 C154.1625,35.31 119.7775,0.91 77.345,0.91 L77.345,16.27 L77.345,16.27 L77.345,16.27 Z" fill="#F15424"></path>
                            <path d="M77.3425,16.27 L77.3425,0.9 C66.9425,0.9 57.0075,2.99 47.955,6.7525 L53.825,20.9375 C61.07,17.9325 69.005,16.27 77.3425,16.27 L77.3425,16.27 Z" fill="#FFD55C"></path>
                        </g>
                        <g transform="translate(55.000000, 45.000000)" fill="#242D3C">
                            <path d="M27.5125,36.0375 L17.1825,36.0375 C13.0975,36.0375 9.2475,34.44 6.3425,31.545 C3.4375,28.6375 1.84,24.785 1.84,20.6875 C1.84,16.575 3.4425,12.7175 6.345,9.825 C9.24,6.935 13.0875,5.3425 17.1825,5.3425 L39.54,5.3425 L39.54,11.975 L17.1825,11.975 C14.8575,11.975 12.6725,12.875 11.0275,14.52 C9.375,16.1625 8.4725,18.35 8.4725,20.6875 C8.4725,23.0125 9.38,25.2025 11.03,26.8525 C12.6775,28.4975 14.8625,29.405 17.1825,29.405 L27.5125,29.405 L27.5125,36.0375 L27.5125,36.0375 Z" id="Shape"></path>
                            <path d="M27.5125,60.11 L5.155,60.11 L5.155,53.4775 L27.5125,53.4775 C29.8275,53.4775 32.0175,52.57 33.6725,50.92 C35.3175,49.2775 36.225,47.0875 36.225,44.7575 C36.225,42.4325 35.3175,40.2425 33.6675,38.5925 C32.0175,36.9475 29.8275,36.04 27.5125,36.04 L17.1825,36.04 L17.1825,29.41 L27.5125,29.41 C31.595,29.41 35.4425,31.0075 38.35,33.9 C41.2575,36.81 42.8575,40.6625 42.8575,44.76 C42.8575,48.86 41.2575,52.715 38.3575,55.6175 C35.4425,58.5125 31.595,60.11 27.5125,60.11 L27.5125,60.11 Z" id="Shape"></path>
                            <rect id="Rectangle-path" x="19.03" y="1.785" width="6.63" height="61.875"></rect>
                        </g>
                    </g>
                    <g transform="translate(375.000000, 127.500000)" id="Shape">
                        <path d="M125,62.83 C125,28.8925 97.495,1.3975 63.5625,1.3975 C29.6325,1.3975 2.1325,28.8925 2.1325,62.83 C2.1325,96.7575 29.6325,124.2625 63.5625,124.2625 C73.705,124.2625 83.255,121.7925 91.6875,117.4475 L107.0025,132.76 L107.0025,106.2825 L106.97,106.2975 C118.1075,95.1825 125,79.8125 125,62.83 L125,62.83 Z" fill="#F15424"></path>
                        <g transform="translate(32.500000, 32.500000)" fill="#FFFFFF">
                            <path d="M31.0625,60.1775 C14.6,60.1775 1.2075,46.785 1.2075,30.32 C1.2075,13.855 14.6,0.4575 31.0625,0.4575 C47.5275,0.4575 60.92,13.8525 60.92,30.32 C60.92,32.0225 59.54,33.4 57.84,33.4 C56.14,33.4 54.7625,32.0225 54.7625,30.32 C54.7625,17.25 44.13,6.6175 31.065,6.6175 C18,6.6175 7.3675,17.25 7.3675,30.32 C7.3675,43.385 18,54.0175 31.065,54.0175 C35.2475,54.0175 39.3475,52.9225 42.9175,50.85 C44.39,49.9925 46.2725,50.4975 47.1275,51.9725 C47.98,53.4425 47.48,55.325 46.0075,56.18 C41.495,58.7975 36.325,60.1775 31.0625,60.1775 L31.0625,60.1775 Z"></path>
                            <path d="M31.0625,46.7975 C21.985,46.7975 14.5975,39.4075 14.5975,30.3275 C14.5975,21.2475 21.985,13.8575 31.0625,13.8575 C40.15,13.8575 47.54,21.2475 47.54,30.3275 C47.54,39.4075 40.15,46.7975 31.0625,46.7975 L31.0625,46.7975 Z M31.0625,20.015 C25.38,20.015 20.7575,24.64 20.7575,30.3275 C20.7575,36.015 25.38,40.64 31.0625,40.64 C36.75,40.64 41.38,36.015 41.38,30.3275 C41.38,24.64 36.75,20.015 31.0625,20.015 L31.0625,20.015 Z"></path>
                            <path d="M51.1525,46.7975 C48.5525,46.7975 46.1,45.7825 44.2525,43.94 C42.4075,42.1275 41.38,39.665 41.38,37.0225 L41.38,30.325 C41.38,28.625 42.76,27.245 44.4575,27.245 C46.16,27.245 47.5375,28.625 47.5375,30.325 L47.5375,37.0225 C47.5375,37.9975 47.9075,38.8975 48.5825,39.56 C49.9975,40.97 52.3475,40.9375 53.7175,39.5775 C54.39,38.905 54.76,37.9975 54.76,37.025 L54.76,30.325 C54.76,28.625 56.1375,27.245 57.8375,27.245 C59.5375,27.245 60.9175,28.625 60.9175,30.325 L60.9175,37.0225 C60.9175,39.6425 59.905,42.0975 58.065,43.935 C56.2175,45.7825 53.7625,46.7975 51.1525,46.7975 L51.1525,46.7975 Z"></path>
                        </g>
                    </g>
                    <g transform="translate(170.000000, 0.000000)" id="Shape">
                        <g transform="translate(75.000000, 0.000000)">
                            <path d="M26.37,38.9925 L33.5725,79.245 L141.89,1.91 L26.37,38.9925 Z" fill="#D9D8D7"></path>
                            <path d="M37.76,45.65 L79.3975,70.03 L141.89,1.91 L37.76,45.65 Z" fill="#E6E5E5"></path>
                            <path d="M1.0025,24.135 L26.37,38.9925 L141.89,1.91 L1.0025,24.135 Z" fill="#E6E5E5"></path>
                            <path d="M33.5725,79.245 L37.76,45.65 L61.32,59.43 L33.5725,79.245 Z" fill="#CCCBCA"></path>
                        </g>
                        <g transform="translate(100.000000, 75.000000)" fill="#242D3C">
                            <path d="M2.21,52.97 C1.95,52.97 1.6925,52.8775 1.4875,52.69 C1.055,52.2925 1.03,51.6175 1.4225,51.1825 L4.9825,47.3025 C5.385,46.87 6.0575,46.8375 6.49,47.2425 C6.9225,47.6375 6.95,48.31 6.555,48.7475 L2.995,52.6225 C2.7775,52.8525 2.495,52.97 2.21,52.97 L2.21,52.97 Z"></path>
                            <path d="M13.5625,40.59 C13.3025,40.59 13.0475,40.4975 12.845,40.31 C12.4125,39.9125 12.3875,39.2425 12.785,38.81 L20.575,30.3125 C20.9825,29.885 21.65,29.845 22.0825,30.2475 C22.515,30.645 22.5425,31.32 22.1475,31.7475 L14.35,40.25 C14.135,40.4725 13.8525,40.59 13.5625,40.59 L13.5625,40.59 Z M29.155,23.5925 C28.895,23.5925 28.64,23.505 28.4375,23.3175 C28.005,22.92 27.9725,22.245 28.3725,21.8175 L36.1675,13.315 C36.57,12.8825 37.2425,12.8525 37.675,13.255 C38.1075,13.6525 38.135,14.3225 37.735,14.76 L29.94,23.2525 C29.73,23.48 29.4375,23.5925 29.155,23.5925 L29.155,23.5925 Z"></path>
                            <path d="M44.7475,6.6 C44.4925,6.6 44.2325,6.5075 44.03,6.32 C43.5925,5.9225 43.5725,5.2525 43.965,4.815 L47.525,0.94 C47.9275,0.5075 48.6,0.4775 49.0325,0.87 C49.465,1.2725 49.49,1.9425 49.0925,2.375 L45.5325,6.255 C45.3225,6.485 45.04,6.6 44.7475,6.6 L44.7475,6.6 Z"></path>
                        </g>
                        <g transform="translate(0.000000, 22.500000)" fill="#242D3C">
                            <path d="M65.76,4.3125 C65.245,4.3125 64.795,3.935 64.7125,3.4125 C64.62,2.8325 65.0175,2.2875 65.5975,2.1975 L70.8,1.38 C71.42,1.2475 71.925,1.685 72.015,2.265 C72.1075,2.8375 71.71,3.3875 71.13,3.475 L65.9275,4.3 C65.8725,4.305 65.815,4.3125 65.76,4.3125 L65.76,4.3125 Z"></path>
                            <path d="M19.7475,11.5625 C19.2325,11.5625 18.78,11.185 18.7,10.6625 C18.6075,10.0825 19.005,9.54 19.58,9.4475 L31.085,7.63 C31.675,7.5025 32.21,7.94 32.3,8.52 C32.39,9.1 31.995,9.64 31.415,9.73 L19.915,11.545 C19.86,11.5525 19.7975,11.5625 19.7475,11.5625 L19.7475,11.5625 Z M42.7525,7.9325 C42.2375,7.9325 41.79,7.5625 41.71,7.0375 C41.6175,6.4575 42.01,5.9125 42.59,5.8225 L54.095,4.0125 C54.68,3.895 55.2175,4.3175 55.31,4.8925 C55.3975,5.47 55.005,6.015 54.425,6.1075 L42.92,7.925 C42.8625,7.9325 42.8075,7.9325 42.7525,7.9325 L42.7525,7.9325 Z"></path>
                            <path d="M3.04,14.1925 C2.525,14.1925 2.075,13.8225 1.9925,13.2975 C1.9,12.7175 2.2975,12.175 2.8775,12.0825 L8.08,11.2625 C8.705,11.13 9.205,11.5675 9.29,12.1475 C9.3825,12.7275 8.99,13.2725 8.41,13.3625 L3.2075,14.18 C3.1525,14.1925 3.0975,14.1925 3.04,14.1925 L3.04,14.1925 Z"></path>
                        </g>
                    </g>
                </g>
            </g>
        </g>
    </g>
</svg>